<svg width="198" height="60" viewBox="0 0 198 60" fill="none" xmlns="http://www.w3.org/2000/svg">
<path d="M87.0625 36H81.3906V20H87.1094C88.7188 20 90.1042 20.3203 91.2656 20.9609C92.4271 21.5964 93.3203 22.5104 93.9453 23.7031C94.5755 24.8958 94.8906 26.3229 94.8906 27.9844C94.8906 29.651 94.5755 31.0833 93.9453 32.2812C93.3203 33.4792 92.4219 34.3984 91.25 35.0391C90.0833 35.6797 88.6875 36 87.0625 36ZM84.7734 33.1016H86.9219C87.9219 33.1016 88.763 32.9245 89.4453 32.5703C90.1328 32.2109 90.6484 31.6562 90.9922 30.9062C91.3411 30.151 91.5156 29.1771 91.5156 27.9844C91.5156 26.8021 91.3411 25.8359 90.9922 25.0859C90.6484 24.3359 90.1354 23.7839 89.4531 23.4297C88.7708 23.0755 87.9297 22.8984 86.9297 22.8984H84.7734V33.1016ZM100.756 36.2266C99.9902 36.2266 99.3079 36.0938 98.709 35.8281C98.11 35.5573 97.6361 35.1589 97.2871 34.6328C96.9434 34.1016 96.7715 33.4401 96.7715 32.6484C96.7715 31.9818 96.8939 31.4219 97.1387 30.9687C97.3835 30.5156 97.7168 30.151 98.1387 29.875C98.5605 29.599 99.0397 29.3906 99.5762 29.25C100.118 29.1094 100.686 29.0104 101.279 28.9531C101.977 28.8802 102.54 28.8125 102.967 28.75C103.394 28.6823 103.704 28.5833 103.896 28.4531C104.089 28.3229 104.186 28.1302 104.186 27.875V27.8281C104.186 27.3333 104.029 26.9505 103.717 26.6797C103.41 26.4089 102.972 26.2734 102.404 26.2734C101.805 26.2734 101.329 26.4062 100.975 26.6719C100.62 26.9323 100.386 27.2604 100.271 27.6562L97.1934 27.4062C97.3496 26.6771 97.6569 26.0469 98.1152 25.5156C98.5736 24.9792 99.1647 24.5677 99.8887 24.2812C100.618 23.9896 101.462 23.8438 102.42 23.8438C103.087 23.8438 103.725 23.9219 104.334 24.0781C104.949 24.2344 105.493 24.4766 105.967 24.8047C106.446 25.1328 106.824 25.5547 107.1 26.0703C107.376 26.5807 107.514 27.1927 107.514 27.9062V36H104.357V34.3359H104.264C104.071 34.7109 103.813 35.0417 103.49 35.3281C103.167 35.6094 102.779 35.8307 102.326 35.9922C101.873 36.1484 101.35 36.2266 100.756 36.2266ZM101.709 33.9297C102.199 33.9297 102.631 33.8333 103.006 33.6406C103.381 33.4427 103.675 33.1771 103.889 32.8438C104.102 32.5104 104.209 32.1328 104.209 31.7109V30.4375C104.105 30.5052 103.962 30.5677 103.779 30.625C103.602 30.6771 103.402 30.7266 103.178 30.7734C102.954 30.8151 102.73 30.8542 102.506 30.8906C102.282 30.9219 102.079 30.9505 101.896 30.9766C101.506 31.0339 101.165 31.125 100.873 31.25C100.581 31.375 100.355 31.5443 100.193 31.7578C100.032 31.9661 99.9512 32.2266 99.9512 32.5391C99.9512 32.9922 100.115 33.3385 100.443 33.5781C100.777 33.8125 101.199 33.9297 101.709 33.9297ZM120.08 27.4219L117.033 27.6094C116.981 27.349 116.869 27.1146 116.697 26.9062C116.525 26.6927 116.299 26.5234 116.018 26.3984C115.742 26.2682 115.411 26.2031 115.025 26.2031C114.51 26.2031 114.075 26.3125 113.721 26.5312C113.367 26.7448 113.189 27.0312 113.189 27.3906C113.189 27.6771 113.304 27.9193 113.533 28.1172C113.762 28.3151 114.156 28.474 114.713 28.5937L116.885 29.0312C118.051 29.2708 118.921 29.6562 119.494 30.1875C120.067 30.7187 120.354 31.4167 120.354 32.2812C120.354 33.0677 120.122 33.7578 119.658 34.3516C119.2 34.9453 118.57 35.4089 117.768 35.7422C116.971 36.0703 116.051 36.2344 115.01 36.2344C113.421 36.2344 112.156 35.9036 111.213 35.2422C110.275 34.5755 109.726 33.6693 109.564 32.5234L112.838 32.3516C112.937 32.8359 113.176 33.2057 113.557 33.4609C113.937 33.7109 114.424 33.8359 115.018 33.8359C115.601 33.8359 116.07 33.724 116.424 33.5C116.783 33.2708 116.965 32.9766 116.971 32.6172C116.965 32.3151 116.838 32.0677 116.588 31.875C116.338 31.6771 115.952 31.526 115.432 31.4219L113.354 31.0078C112.182 30.7734 111.309 30.3672 110.736 29.7891C110.169 29.2109 109.885 28.474 109.885 27.5781C109.885 26.8073 110.093 26.1432 110.51 25.5859C110.932 25.0286 111.523 24.599 112.283 24.2969C113.049 23.9948 113.945 23.8438 114.971 23.8438C116.486 23.8438 117.679 24.1641 118.549 24.8047C119.424 25.4453 119.934 26.3177 120.08 27.4219ZM125.777 29.0625V36H122.449V20H125.684V26.1172H125.824C126.095 25.4089 126.533 24.8542 127.137 24.4531C127.741 24.0469 128.499 23.8438 129.41 23.8438C130.243 23.8438 130.97 24.026 131.59 24.3906C132.215 24.75 132.699 25.2682 133.043 25.9453C133.392 26.6172 133.564 27.4219 133.559 28.3594V36H130.23V28.9531C130.236 28.2135 130.048 27.638 129.668 27.2266C129.293 26.8151 128.767 26.6094 128.09 26.6094C127.637 26.6094 127.236 26.7057 126.887 26.8984C126.543 27.0911 126.272 27.3724 126.074 27.7422C125.882 28.1068 125.783 28.5469 125.777 29.0625ZM136.24 36V20H139.568V26.0156H139.67C139.816 25.6927 140.027 25.3646 140.303 25.0312C140.584 24.6927 140.949 24.4115 141.396 24.1875C141.85 23.9583 142.412 23.8438 143.084 23.8438C143.959 23.8438 144.766 24.0729 145.506 24.5313C146.245 24.9844 146.837 25.6693 147.279 26.5859C147.722 27.4974 147.943 28.6406 147.943 30.0156C147.943 31.3542 147.727 32.4844 147.295 33.4062C146.868 34.3229 146.285 35.0182 145.545 35.4922C144.811 35.9609 143.988 36.1953 143.076 36.1953C142.43 36.1953 141.881 36.0885 141.428 35.875C140.98 35.6615 140.613 35.3932 140.326 35.0703C140.04 34.7422 139.821 34.4115 139.67 34.0781H139.521V36H136.24ZM139.498 30C139.498 30.7135 139.597 31.3359 139.795 31.8672C139.993 32.3984 140.279 32.8125 140.654 33.1094C141.029 33.401 141.485 33.5469 142.021 33.5469C142.563 33.5469 143.021 33.3984 143.396 33.1016C143.771 32.7995 144.055 32.3828 144.248 31.8516C144.446 31.3151 144.545 30.6979 144.545 30C144.545 29.3073 144.449 28.6979 144.256 28.1719C144.063 27.6458 143.779 27.2344 143.404 26.9375C143.029 26.6406 142.568 26.4922 142.021 26.4922C141.48 26.4922 141.021 26.6354 140.646 26.9219C140.277 27.2083 139.993 27.6146 139.795 28.1406C139.597 28.6667 139.498 29.2865 139.498 30ZM155.586 36.2344C154.372 36.2344 153.323 35.9766 152.438 35.4609C151.557 34.9401 150.878 34.2161 150.398 33.2891C149.919 32.3568 149.68 31.276 149.68 30.0469C149.68 28.8073 149.919 27.724 150.398 26.7969C150.878 25.8646 151.557 25.1406 152.438 24.625C153.323 24.1042 154.372 23.8438 155.586 23.8438C156.799 23.8438 157.846 24.1042 158.727 24.625C159.612 25.1406 160.294 25.8646 160.773 26.7969C161.253 27.724 161.492 28.8073 161.492 30.0469C161.492 31.276 161.253 32.3568 160.773 33.2891C160.294 34.2161 159.612 34.9401 158.727 35.4609C157.846 35.9766 156.799 36.2344 155.586 36.2344ZM155.602 33.6562C156.154 33.6562 156.615 33.5 156.984 33.1875C157.354 32.8698 157.633 32.4375 157.82 31.8906C158.013 31.3437 158.109 30.7214 158.109 30.0234C158.109 29.3255 158.013 28.7031 157.82 28.1562C157.633 27.6094 157.354 27.1771 156.984 26.8594C156.615 26.5417 156.154 26.3828 155.602 26.3828C155.044 26.3828 154.576 26.5417 154.195 26.8594C153.82 27.1771 153.536 27.6094 153.344 28.1562C153.156 28.7031 153.063 29.3255 153.063 30.0234C153.063 30.7214 153.156 31.3437 153.344 31.8906C153.536 32.4375 153.82 32.8698 154.195 33.1875C154.576 33.5 155.044 33.6562 155.602 33.6562ZM167.078 36.2266C166.313 36.2266 165.63 36.0938 165.031 35.8281C164.432 35.5573 163.958 35.1589 163.609 34.6328C163.266 34.1016 163.094 33.4401 163.094 32.6484C163.094 31.9818 163.216 31.4219 163.461 30.9687C163.706 30.5156 164.039 30.151 164.461 29.875C164.883 29.599 165.362 29.3906 165.898 29.25C166.44 29.1094 167.008 29.0104 167.602 28.9531C168.299 28.8802 168.862 28.8125 169.289 28.75C169.716 28.6823 170.026 28.5833 170.219 28.4531C170.411 28.3229 170.508 28.1302 170.508 27.875V27.8281C170.508 27.3333 170.352 26.9505 170.039 26.6797C169.732 26.4089 169.294 26.2734 168.727 26.2734C168.128 26.2734 167.651 26.4062 167.297 26.6719C166.943 26.9323 166.708 27.2604 166.594 27.6562L163.516 27.4062C163.672 26.6771 163.979 26.0469 164.438 25.5156C164.896 24.9792 165.487 24.5677 166.211 24.2812C166.94 23.9896 167.784 23.8438 168.742 23.8438C169.409 23.8438 170.047 23.9219 170.656 24.0781C171.271 24.2344 171.815 24.4766 172.289 24.8047C172.768 25.1328 173.146 25.5547 173.422 26.0703C173.698 26.5807 173.836 27.1927 173.836 27.9062V36H170.68V34.3359H170.586C170.393 34.7109 170.135 35.0417 169.813 35.3281C169.49 35.6094 169.102 35.8307 168.648 35.9922C168.195 36.1484 167.672 36.2266 167.078 36.2266ZM168.031 33.9297C168.521 33.9297 168.953 33.8333 169.328 33.6406C169.703 33.4427 169.997 33.1771 170.211 32.8438C170.424 32.5104 170.531 32.1328 170.531 31.7109V30.4375C170.427 30.5052 170.284 30.5677 170.102 30.625C169.924 30.6771 169.724 30.7266 169.5 30.7734C169.276 30.8151 169.052 30.8542 168.828 30.8906C168.604 30.9219 168.401 30.9505 168.219 30.9766C167.828 31.0339 167.487 31.125 167.195 31.25C166.904 31.375 166.677 31.5443 166.516 31.7578C166.354 31.9661 166.273 32.2266 166.273 32.5391C166.273 32.9922 166.438 33.3385 166.766 33.5781C167.099 33.8125 167.521 33.9297 168.031 33.9297ZM176.418 36V24H179.645V26.0937H179.77C179.988 25.349 180.355 24.7865 180.871 24.4063C181.387 24.0208 181.98 23.8281 182.652 23.8281C182.819 23.8281 182.999 23.8385 183.191 23.8594C183.384 23.8802 183.553 23.9089 183.699 23.9453V26.8984C183.543 26.8516 183.327 26.8099 183.051 26.7734C182.775 26.737 182.522 26.7188 182.293 26.7188C181.803 26.7188 181.366 26.8255 180.98 27.0391C180.6 27.2474 180.298 27.5391 180.074 27.9141C179.855 28.2891 179.746 28.7214 179.746 29.2109V36H176.418ZM189.283 36.1953C188.372 36.1953 187.546 35.9609 186.807 35.4922C186.072 35.0182 185.489 34.3229 185.057 33.4062C184.63 32.4844 184.416 31.3542 184.416 30.0156C184.416 28.6406 184.637 27.4974 185.08 26.5859C185.523 25.6693 186.111 24.9844 186.846 24.5313C187.585 24.0729 188.395 23.8438 189.275 23.8438C189.947 23.8438 190.507 23.9583 190.955 24.1875C191.408 24.4115 191.773 24.6927 192.049 25.0312C192.33 25.3646 192.544 25.6927 192.689 26.0156H192.791V20H196.111V36H192.83V34.0781H192.689C192.533 34.4115 192.312 34.7422 192.025 35.0703C191.744 35.3932 191.377 35.6615 190.924 35.875C190.476 36.0885 189.929 36.1953 189.283 36.1953ZM190.338 33.5469C190.874 33.5469 191.327 33.401 191.697 33.1094C192.072 32.8125 192.359 32.3984 192.557 31.8672C192.76 31.3359 192.861 30.7135 192.861 30C192.861 29.2865 192.762 28.6667 192.564 28.1406C192.367 27.6146 192.08 27.2083 191.705 26.9219C191.33 26.6354 190.874 26.4922 190.338 26.4922C189.791 26.4922 189.33 26.6406 188.955 26.9375C188.58 27.2344 188.296 27.6458 188.104 28.1719C187.911 28.6979 187.814 29.3073 187.814 30C187.814 30.6979 187.911 31.3151 188.104 31.8516C188.301 32.3828 188.585 32.7995 188.955 33.1016C189.33 33.3984 189.791 33.5469 190.338 33.5469Z" fill="#8DFF26"/>
<path d="M30.148 -3.6504e-06C36.0751 0.0292368 41.8606 1.81353 46.7746 5.1277C51.6886 8.44186 55.5107 13.1374 57.7586 18.6217C60.0066 24.106 60.5796 30.1333 59.4054 35.9429C58.2312 41.7525 55.3623 47.0842 51.1609 51.265C46.9595 55.4458 41.6138 58.2883 35.7985 59.4339C29.9831 60.5795 23.9587 59.9769 18.4856 57.7019C13.0124 55.427 8.33576 51.5818 5.04582 46.6516C1.75587 41.7214 7.21269e-05 35.9271 0 30C0.0285942 22.0267 3.21879 14.3902 8.87068 8.76608C14.5226 3.14193 22.1746 -0.010648 30.148 -3.6504e-06ZM30.148 54.957C35.0787 54.9327 39.8917 53.4484 43.9797 50.6913C48.0676 47.9343 51.2473 44.0281 53.1174 39.4657C54.9875 34.9033 55.4642 29.8892 54.4874 25.0562C53.5105 20.2231 51.124 15.7877 47.6288 12.3097C44.1337 8.8317 39.6866 6.46697 34.8488 5.51392C30.011 4.56088 24.9993 5.06224 20.4462 6.95474C15.893 8.84723 12.0025 12.046 9.26562 16.1475C6.52871 20.2489 5.06806 25.0692 5.068 30C5.09183 36.633 7.74575 42.9857 12.4475 47.6644C17.1493 52.3431 23.515 54.9658 30.148 54.957Z" fill="url(#paint0_linear_108_101)"/>
<path d="M39.122 47.806C38.8471 47.8065 38.5748 47.7527 38.3207 47.6475C38.0667 47.5422 37.8361 47.3878 37.642 47.193L22.089 31.64C22.024 31.5658 21.9633 31.488 21.907 31.407C21.8307 31.2938 21.7661 31.1732 21.714 31.047C21.6628 30.921 21.6236 30.7904 21.597 30.657C21.5681 30.5203 21.5544 30.3807 21.556 30.241C21.5558 30.1065 21.5682 29.9722 21.593 29.84C21.621 29.7037 21.6601 29.5699 21.71 29.44C21.7624 29.3155 21.827 29.1966 21.903 29.085C21.973 28.9613 22.0561 28.8457 22.151 28.74C22.5493 28.3506 23.084 28.1324 23.641 28.132C23.7755 28.1306 23.9097 28.1443 24.041 28.173C24.1748 28.1982 24.3055 28.2374 24.431 28.29C24.5572 28.342 24.6778 28.4067 24.791 28.483C24.9051 28.559 25.0119 28.6453 25.11 28.741L25.186 28.822L36.97 40.622L39.026 42.68C42.1014 38.8418 43.6581 34.0068 43.4 29.0953C43.1418 24.1838 41.0868 19.5387 37.626 16.044C37.4113 15.8273 37.2463 15.5665 37.1426 15.2796C37.0389 14.9927 36.9989 14.6867 37.0254 14.3828C37.052 14.0789 37.1444 13.7845 37.2963 13.5199C37.4482 13.2554 37.656 13.0271 37.905 12.851C38.2425 12.6118 38.6464 12.4841 39.06 12.486C39.3605 12.4885 39.6575 12.5502 39.9341 12.6675C40.2107 12.7849 40.4615 12.9556 40.672 13.17C45.1573 17.7014 47.6661 23.8244 47.65 30.2002C47.6339 36.5761 45.0942 42.6863 40.586 47.195C40.1977 47.5838 39.6715 47.8034 39.122 47.806ZM21.177 47.54C20.9021 47.5405 20.6298 47.4867 20.3757 47.3815C20.1217 47.2762 19.8911 47.1218 19.697 46.927C15.1817 42.3993 12.646 36.2659 12.646 29.8715C12.646 23.4771 15.1817 17.3437 19.697 12.816C19.8914 12.6216 20.1221 12.4675 20.3761 12.3623C20.63 12.2571 20.9022 12.2029 21.177 12.2029C21.4519 12.2029 21.7241 12.2571 21.978 12.3623C22.2319 12.4675 22.4627 12.6216 22.657 12.816L38.235 28.392C38.4294 28.5863 38.5836 28.8171 38.6887 29.071C38.7939 29.325 38.8481 29.5971 38.8481 29.872C38.8481 30.1469 38.7939 30.419 38.6887 30.673C38.5836 30.9269 38.4294 31.1576 38.235 31.352C38.0407 31.5463 37.8099 31.7005 37.556 31.8057C37.3021 31.9109 37.0299 31.965 36.755 31.965C36.4802 31.965 36.208 31.9109 35.9541 31.8057C35.7001 31.7005 35.4694 31.5463 35.275 31.352L27.324 23.397L21.258 17.329C18.1851 21.1644 16.6297 25.9959 16.8879 30.9037C17.146 35.8115 19.1997 40.4531 22.658 43.945C22.9479 44.2403 23.1447 44.6143 23.224 45.0205C23.3033 45.4267 23.2615 45.8473 23.1038 46.2299C22.9462 46.6126 22.6797 46.9406 22.3373 47.1731C21.995 47.4056 21.5919 47.5325 21.178 47.538L21.177 47.54Z" fill="url(#paint1_linear_108_101)"/>
<defs>
<linearGradient id="paint0_linear_108_101" x1="30" y1="-3.05176e-05" x2="30" y2="59.9996" gradientUnits="userSpaceOnUse">
<stop stop-color="#72FFB6"/>
<stop offset="1" stop-color="#8CFF2F"/>
</linearGradient>
<linearGradient id="paint1_linear_108_101" x1="47.3351" y1="34.6329" x2="12.9212" y2="25.6999" gradientUnits="userSpaceOnUse">
<stop stop-color="#6CFFD3"/>
<stop offset="1" stop-color="#9BFF00"/>
</linearGradient>
</defs>
</svg>
