<svg xmlns="http://www.w3.org/2000/svg" xmlns:xlink="http://www.w3.org/1999/xlink" width="238.212" height="150" viewBox="0 0 238.212 150">
  <defs>
    <linearGradient id="linear-gradient" x1="0.5" x2="0.5" y2="1" gradientUnits="objectBoundingBox">
      <stop offset="0" stop-color="#72ffb6"/>
      <stop offset="1" stop-color="#8cff2f"/>
    </linearGradient>
    <filter id="Ellipse_420" x="0" y="0" width="150.296" height="150" filterUnits="userSpaceOnUse">
      <feOffset input="SourceAlpha"/>
      <feGaussianBlur stdDeviation="15" result="blur"/>
      <feFlood flood-color="#37d47b" flood-opacity="0.302"/>
      <feComposite operator="in" in2="blur"/>
      <feComposite in="SourceGraphic"/>
    </filter>
    <linearGradient id="linear-gradient-2" x1="0.991" y1="0.63" x2="0.01" y2="0.371" gradientUnits="objectBoundingBox">
      <stop offset="0" stop-color="#6cffd3"/>
      <stop offset="1" stop-color="#9bff00"/>
    </linearGradient>
    <filter id="Path_2459" x="12.645" y="12.197" width="125.004" height="125.606" filterUnits="userSpaceOnUse">
      <feOffset input="SourceAlpha"/>
      <feGaussianBlur stdDeviation="15" result="blur-2"/>
      <feFlood flood-color="#6ab04d" flood-opacity="0.302"/>
      <feComposite operator="in" in2="blur-2"/>
      <feComposite in="SourceGraphic"/>
    </filter>
  </defs>
  <g id="Group_1534" data-name="Group 1534" transform="translate(-115 -15)">
    <path id="Path_2490" data-name="Path 2490" d="M1.012,0V-2.332H3.08V-13.068H1.012V-15.4h6.27a6.538,6.538,0,0,1,4.708,1.562,6.208,6.208,0,0,1,1.628,4.686v2.9A6.208,6.208,0,0,1,11.99-1.562,6.538,6.538,0,0,1,7.282,0ZM5.72-2.4H7.3a3.617,3.617,0,0,0,2.772-.968,3.952,3.952,0,0,0,.9-2.794V-9.218a3.979,3.979,0,0,0-.9-2.827A3.642,3.642,0,0,0,7.3-13H5.72ZM19.6.308A5.077,5.077,0,0,1,17.534-.1a3.427,3.427,0,0,1-1.463-1.177,3.217,3.217,0,0,1-.539-1.892,3.078,3.078,0,0,1,.539-1.848,3.322,3.322,0,0,1,1.485-1.133,5.68,5.68,0,0,1,2.156-.385h3.146v-.66a1.912,1.912,0,0,0-.528-1.4,2.223,2.223,0,0,0-1.65-.539,2.373,2.373,0,0,0-1.661.517,2.467,2.467,0,0,0-.737,1.331l-2.332-.77A4.506,4.506,0,0,1,16.8-9.614a4.157,4.157,0,0,1,1.551-1.133,5.857,5.857,0,0,1,2.376-.429,4.926,4.926,0,0,1,3.355,1.067A3.884,3.884,0,0,1,25.3-7.018V-2.75q0,.66.616.66h.924V0H25.058a2.044,2.044,0,0,1-1.3-.4,1.3,1.3,0,0,1-.506-1.078v-.044H22.88a3.854,3.854,0,0,1-.462.748,2.631,2.631,0,0,1-1,.759A4.285,4.285,0,0,1,19.6.308ZM20.02-1.76a2.936,2.936,0,0,0,2.046-.715A2.465,2.465,0,0,0,22.858-4.4v-.22H19.866a2.265,2.265,0,0,0-1.32.352,1.179,1.179,0,0,0-.506,1.034,1.284,1.284,0,0,0,.528,1.067A2.324,2.324,0,0,0,20.02-1.76ZM33.33.308a6.07,6.07,0,0,1-3.476-.924A3.842,3.842,0,0,1,28.2-3.322l2.332-.594a2.877,2.877,0,0,0,.55,1.32,2.127,2.127,0,0,0,.979.682,3.91,3.91,0,0,0,1.265.2,2.644,2.644,0,0,0,1.551-.374,1.127,1.127,0,0,0,.517-.946.948.948,0,0,0-.5-.88A5.1,5.1,0,0,0,33.4-4.4l-.682-.11a10.632,10.632,0,0,1-2.046-.605,3.8,3.8,0,0,1-1.485-1.056,2.568,2.568,0,0,1-.561-1.7A2.842,2.842,0,0,1,29.8-10.318a5.126,5.126,0,0,1,3.091-.858,5.217,5.217,0,0,1,3.014.814,3.682,3.682,0,0,1,1.54,2.178l-2.332.7a1.888,1.888,0,0,0-.77-1.309,2.614,2.614,0,0,0-1.452-.385,2.48,2.48,0,0,0-1.353.308.989.989,0,0,0-.473.88.933.933,0,0,0,.484.858,3.749,3.749,0,0,0,1.3.418l.682.132a13.751,13.751,0,0,1,2.189.572,3.623,3.623,0,0,1,1.551,1.012,2.627,2.627,0,0,1,.572,1.782A3.06,3.06,0,0,1,36.619-.605,5.369,5.369,0,0,1,33.33.308ZM40.392,0V-15.4h2.53v5.962H43.3a2.546,2.546,0,0,1,.572-.748,3.057,3.057,0,0,1,1.045-.616,4.743,4.743,0,0,1,1.639-.242,4.35,4.35,0,0,1,2.222.561A3.894,3.894,0,0,1,50.281-8.91a5.033,5.033,0,0,1,.539,2.4V0H48.29V-6.314a2.677,2.677,0,0,0-.649-1.969A2.484,2.484,0,0,0,45.8-8.932a2.645,2.645,0,0,0-2.112.891,3.772,3.772,0,0,0-.77,2.541V0ZM60.346.308a4.326,4.326,0,0,1-2.365-.539,3.589,3.589,0,0,1-1.2-1.2h-.374V0H53.922V-15.4h2.53v5.9h.374a3.007,3.007,0,0,1,.671-.814,3.39,3.39,0,0,1,1.122-.616,5.3,5.3,0,0,1,1.727-.242,4.834,4.834,0,0,1,2.464.649,4.763,4.763,0,0,1,1.8,1.9A6.225,6.225,0,0,1,65.3-5.61v.352a6.225,6.225,0,0,1-.682,3.014A4.739,4.739,0,0,1,62.8-.341,4.852,4.852,0,0,1,60.346.308Zm-.748-2.2a3.093,3.093,0,0,0,2.266-.891,3.413,3.413,0,0,0,.9-2.541v-.22A3.431,3.431,0,0,0,61.875-8.1a3.1,3.1,0,0,0-2.277-.88,3.151,3.151,0,0,0-2.277.88,3.382,3.382,0,0,0-.913,2.552v.22a3.389,3.389,0,0,0,.913,2.541A3.13,3.13,0,0,0,59.6-1.892Zm13.53,2.2a6.211,6.211,0,0,1-2.915-.671,4.989,4.989,0,0,1-2.024-1.914,5.742,5.742,0,0,1-.737-2.981V-5.61A5.8,5.8,0,0,1,68.189-8.6a4.894,4.894,0,0,1,2.024-1.914,6.3,6.3,0,0,1,2.915-.66,6.229,6.229,0,0,1,2.9.66A4.911,4.911,0,0,1,78.045-8.6a5.8,5.8,0,0,1,.737,2.992v.352a5.742,5.742,0,0,1-.737,2.981A5.007,5.007,0,0,1,76.032-.363,6.145,6.145,0,0,1,73.128.308Zm0-2.244a3.047,3.047,0,0,0,2.266-.891,3.4,3.4,0,0,0,.88-2.5v-.22a3.4,3.4,0,0,0-.88-2.5,3.047,3.047,0,0,0-2.266-.891,3.047,3.047,0,0,0-2.266.891,3.4,3.4,0,0,0-.88,2.5v.22a3.4,3.4,0,0,0,.88,2.5A3.047,3.047,0,0,0,73.128-1.936ZM84.832.308A5.077,5.077,0,0,1,82.764-.1,3.428,3.428,0,0,1,81.3-1.276a3.217,3.217,0,0,1-.539-1.892A3.078,3.078,0,0,1,81.3-5.016a3.322,3.322,0,0,1,1.485-1.133,5.68,5.68,0,0,1,2.156-.385h3.146v-.66a1.912,1.912,0,0,0-.528-1.4,2.223,2.223,0,0,0-1.65-.539,2.373,2.373,0,0,0-1.661.517,2.466,2.466,0,0,0-.737,1.331l-2.332-.77a4.506,4.506,0,0,1,.847-1.562,4.157,4.157,0,0,1,1.551-1.133,5.857,5.857,0,0,1,2.376-.429,4.926,4.926,0,0,1,3.355,1.067A3.884,3.884,0,0,1,90.53-7.018V-2.75q0,.66.616.66h.924V0H90.288a2.044,2.044,0,0,1-1.3-.4,1.3,1.3,0,0,1-.506-1.078v-.044H88.11a3.854,3.854,0,0,1-.462.748,2.631,2.631,0,0,1-1,.759A4.285,4.285,0,0,1,84.832.308ZM85.25-1.76A2.936,2.936,0,0,0,87.3-2.475,2.465,2.465,0,0,0,88.088-4.4v-.22H85.1a2.265,2.265,0,0,0-1.32.352,1.179,1.179,0,0,0-.506,1.034A1.284,1.284,0,0,0,83.8-2.167,2.324,2.324,0,0,0,85.25-1.76ZM94.16,0V-10.868h2.486v1.254h.374a1.728,1.728,0,0,1,.814-.99,2.838,2.838,0,0,1,1.364-.308h1.32v2.244H99.154a2.647,2.647,0,0,0-1.782.583,2.231,2.231,0,0,0-.682,1.793V0Zm12.65.308a4.912,4.912,0,0,1-2.464-.649,4.715,4.715,0,0,1-1.826-1.9,6.225,6.225,0,0,1-.682-3.014V-5.61a6.225,6.225,0,0,1,.682-3.014,4.739,4.739,0,0,1,1.815-1.9,4.893,4.893,0,0,1,2.475-.649,5.316,5.316,0,0,1,1.716.242,3.377,3.377,0,0,1,1.133.616,3.007,3.007,0,0,1,.671.814h.374v-5.9h2.508V0h-2.464V-1.43h-.374a3.849,3.849,0,0,1-1.21,1.2A4.267,4.267,0,0,1,106.81.308Zm.748-2.2a3.093,3.093,0,0,0,2.266-.891,3.413,3.413,0,0,0,.9-2.541v-.22a3.431,3.431,0,0,0-.891-2.552,3.1,3.1,0,0,0-2.277-.88,3.151,3.151,0,0,0-2.277.88,3.382,3.382,0,0,0-.913,2.552v.22a3.389,3.389,0,0,0,.913,2.541A3.13,3.13,0,0,0,107.558-1.892Z" transform="translate(240 96)" fill="#8dff26"/>
    <g id="Group_1522" data-name="Group 1522" transform="translate(-178)">
      <g transform="matrix(1, 0, 0, 1, 293, 15)" filter="url(#Ellipse_420)">
        <path id="Ellipse_420-2" data-name="Ellipse 420" d="M25.148-5A30,30,0,1,1-5,25,30.108,30.108,0,0,1,25.148-5Zm0,54.957A24.957,24.957,0,1,0,.068,25,25.047,25.047,0,0,0,25.148,49.957Z" transform="translate(50 50)" fill="url(#linear-gradient)"/>
      </g>
      <g transform="matrix(1, 0, 0, 1, 293, 15)" filter="url(#Path_2459)">
        <path id="Path_2459-2" data-name="Path 2459" d="M51.412,59.966a2.083,2.083,0,0,1-1.48-.613L34.379,43.8h0a2.628,2.628,0,0,1-.182-.233,2.028,2.028,0,0,1-.193-.36,2.154,2.154,0,0,1-.117-.39,1.9,1.9,0,0,1-.041-.416A2.153,2.153,0,0,1,33.883,42,2.534,2.534,0,0,1,34,41.6a2.027,2.027,0,0,1,.193-.355,1.961,1.961,0,0,1,.248-.345,2.134,2.134,0,0,1,1.49-.608,1.789,1.789,0,0,1,.4.041,1.936,1.936,0,0,1,.39.117,2.027,2.027,0,0,1,.36.193,2.224,2.224,0,0,1,.319.258l.076.081,11.784,11.8,2.056,2.058a20.043,20.043,0,0,0-1.4-26.636,2.1,2.1,0,0,1,.279-3.193,1.982,1.982,0,0,1,1.155-.365,2.286,2.286,0,0,1,1.612.684,24.122,24.122,0,0,1-.086,34.025A2.083,2.083,0,0,1,51.412,59.966ZM33.467,59.7a2.083,2.083,0,0,1-1.48-.613,24.153,24.153,0,0,1,0-34.111,2.093,2.093,0,0,1,2.96,0L50.525,40.552a2.093,2.093,0,1,1-2.96,2.96l-7.951-7.955-6.066-6.068a20.028,20.028,0,0,0,1.4,26.616,2.113,2.113,0,0,1-1.48,3.593Z" transform="translate(32.71 32.84)" fill="url(#linear-gradient-2)"/>
      </g>
    </g>
  </g>
</svg>
