<svg width="187" height="60" viewBox="0 0 187 60" fill="none" xmlns="http://www.w3.org/2000/svg">
<path d="M74.012 37.4155V35.0835H76.08V24.3475H74.012V22.0155H80.282C81.9956 21.8975 83.6867 22.4586 84.99 23.5775C85.5689 24.2047 86.0123 24.9445 86.2924 25.7508C86.5725 26.557 86.6833 27.4124 86.618 28.2635V31.1635C86.6839 32.0151 86.5733 32.8713 86.2932 33.6783C86.0131 34.4853 85.5694 35.2258 84.99 35.8535C83.6867 36.9723 81.9956 37.5334 80.282 37.4155H74.012ZM78.72 35.0155H80.3C80.804 35.0569 81.3111 34.9921 81.7886 34.8254C82.2661 34.6586 82.7033 34.3936 83.072 34.0475C83.7195 33.2662 84.0418 32.2658 83.972 31.2535V28.1975C84.0476 27.1743 83.7252 26.1615 83.072 25.3705C82.7013 25.0279 82.2635 24.7661 81.7863 24.6017C81.3091 24.4373 80.803 24.3739 80.3 24.4155H78.72V35.0155ZM92.6 37.7235C91.8904 37.7333 91.1865 37.5944 90.534 37.3155C89.9462 37.067 89.4395 36.6593 89.071 36.1385C88.6981 35.5795 88.5097 34.9179 88.532 34.2465C88.5094 33.5887 88.6983 32.941 89.071 32.3985C89.4474 31.8865 89.9628 31.4933 90.556 31.2655C91.2428 30.9985 91.9751 30.8677 92.712 30.8805H95.858V30.2205C95.8686 29.9636 95.8273 29.7072 95.7366 29.4667C95.6459 29.2261 95.5076 29.0063 95.33 28.8205C95.1051 28.6245 94.8432 28.4758 94.5597 28.3833C94.2763 28.2907 93.9771 28.256 93.68 28.2815C93.0808 28.2373 92.4872 28.4221 92.019 28.7985C91.6392 29.1534 91.3813 29.6192 91.282 30.1295L88.95 29.3595C89.1272 28.7889 89.4161 28.2593 89.8 27.8015C90.2214 27.3079 90.7526 26.9199 91.351 26.6685C92.1046 26.362 92.9138 26.2159 93.727 26.2395C94.9386 26.1697 96.1332 26.5497 97.082 27.3065C97.501 27.6995 97.8275 28.1806 98.0381 28.7151C98.2488 29.2497 98.3382 29.8242 98.3 30.3975V34.6655C98.3 35.1055 98.5053 35.3255 98.916 35.3255H99.84V37.4155H98.058C97.5917 37.4344 97.1329 37.2933 96.758 37.0155C96.5938 36.8891 96.4623 36.7253 96.3743 36.5378C96.2863 36.3503 96.2443 36.1445 96.252 35.9375V35.8935H95.88C95.755 36.1596 95.6 36.4106 95.418 36.6415C95.1508 36.9714 94.8077 37.2319 94.418 37.4005C93.8426 37.639 93.2222 37.7492 92.6 37.7235ZM93.02 35.6555C93.7682 35.6868 94.5001 35.431 95.066 34.9405C95.3304 34.6968 95.5383 34.3982 95.6751 34.0657C95.8119 33.7331 95.8743 33.3747 95.858 33.0155V32.7955H92.866C92.4002 32.7741 91.9392 32.8971 91.546 33.1475C91.3803 33.2622 91.2468 33.4175 91.1582 33.5985C91.0696 33.7795 91.0289 33.9802 91.04 34.1815C91.0353 34.3887 91.0809 34.594 91.1728 34.7798C91.2648 34.9657 91.4004 35.1264 91.568 35.2485C91.9933 35.5417 92.5042 35.6849 93.02 35.6555ZM106.33 37.7235C105.105 37.7737 103.893 37.4515 102.854 36.7995C102.402 36.4921 102.02 36.0917 101.735 35.6251C101.449 35.1584 101.267 34.6362 101.2 34.0935L103.532 33.4995C103.601 33.9787 103.79 34.4328 104.082 34.8195C104.337 35.1355 104.676 35.3722 105.061 35.5015C105.469 35.6372 105.896 35.7048 106.326 35.7015C106.869 35.7395 107.411 35.6089 107.877 35.3275C108.035 35.2255 108.166 35.0855 108.256 34.9203C108.346 34.755 108.394 34.5698 108.394 34.3815C108.402 34.2025 108.36 34.0249 108.271 33.8691C108.183 33.7134 108.052 33.5859 107.894 33.5015C107.424 33.2633 106.92 33.0993 106.4 33.0155L105.718 32.9055C105.017 32.7729 104.332 32.5702 103.672 32.3005C103.099 32.0741 102.589 31.7117 102.187 31.2445C101.802 30.7634 101.603 30.1601 101.626 29.5445C101.602 29.071 101.697 28.5991 101.902 28.1718C102.107 27.7444 102.416 27.3751 102.8 27.0975C103.712 26.4881 104.795 26.1874 105.891 26.2395C106.955 26.1968 108.007 26.4808 108.905 27.0535C109.672 27.5615 110.222 28.3385 110.445 29.2315L108.113 29.9315C108.082 29.6718 107.998 29.4214 107.865 29.1961C107.733 28.9708 107.555 28.7754 107.343 28.6225C106.907 28.3548 106.402 28.221 105.891 28.2375C105.42 28.2093 104.95 28.3161 104.538 28.5455C104.388 28.6369 104.265 28.7667 104.182 28.9213C104.099 29.076 104.059 29.25 104.065 29.4255C104.058 29.5994 104.099 29.7719 104.184 29.9235C104.27 30.0752 104.396 30.1998 104.549 30.2835C104.953 30.5012 105.394 30.6429 105.849 30.7015L106.531 30.8335C107.275 30.9637 108.007 31.155 108.72 31.4055C109.316 31.6027 109.85 31.9514 110.271 32.4175C110.674 32.9211 110.878 33.5554 110.843 34.1995C110.869 34.7017 110.771 35.2028 110.558 35.6582C110.344 36.1136 110.022 36.5094 109.619 36.8105C108.651 37.4645 107.496 37.785 106.33 37.7235ZM113.392 37.4155V22.0155H115.922V27.9775H116.3C116.442 27.6947 116.636 27.4411 116.872 27.2295C117.176 26.9564 117.531 26.7469 117.917 26.6135C118.445 26.4373 119 26.3553 119.556 26.3715C120.333 26.3565 121.101 26.5502 121.778 26.9325C122.418 27.3033 122.94 27.849 123.281 28.5055C123.656 29.2486 123.842 30.0732 123.82 30.9055V37.4155H121.29V31.1015C121.318 30.7466 121.275 30.3897 121.164 30.0516C121.052 29.7135 120.875 29.401 120.641 29.1325C120.394 28.9056 120.103 28.7311 119.787 28.6195C119.47 28.508 119.135 28.4617 118.8 28.4835C118.404 28.464 118.008 28.534 117.642 28.6883C117.277 28.8425 116.951 29.077 116.688 29.3745C116.132 30.1001 115.858 31.0031 115.918 31.9155V37.4155H113.392ZM133.346 37.7235C132.522 37.773 131.702 37.586 130.981 37.1845C130.491 36.8861 130.079 36.4746 129.781 35.9845H129.407V37.4155H126.922V22.0155H129.452V27.9155H129.826C130 27.6067 130.227 27.3311 130.497 27.1015C130.828 26.8267 131.209 26.6177 131.619 26.4855C132.177 26.31 132.761 26.2282 133.346 26.2435C134.211 26.2355 135.061 26.4597 135.81 26.8925C136.576 27.3453 137.199 28.0035 137.61 28.7925C138.09 29.7228 138.327 30.7591 138.3 31.8055V32.1575C138.33 33.2035 138.095 34.2401 137.618 35.1715C137.204 35.9647 136.573 36.6245 135.8 37.0745C135.054 37.5047 134.207 37.7287 133.346 37.7235ZM132.598 35.5235C133.016 35.536 133.433 35.4635 133.822 35.3103C134.212 35.1572 134.566 34.9266 134.864 34.6325C135.179 34.2922 135.421 33.8914 135.575 33.4546C135.73 33.0177 135.794 32.5539 135.764 32.0915V31.8715C135.797 31.4074 135.735 30.9415 135.582 30.5021C135.429 30.0627 135.189 29.659 134.875 29.3155C134.575 29.0223 134.218 28.7932 133.827 28.6419C133.435 28.4906 133.017 28.4204 132.598 28.4355C132.179 28.4233 131.762 28.4949 131.371 28.646C130.98 28.7971 130.623 29.0247 130.321 29.3155C130.001 29.6549 129.755 30.0568 129.598 30.496C129.441 30.9352 129.376 31.4021 129.408 31.8675V32.0875C129.378 32.551 129.443 33.0157 129.6 33.4528C129.758 33.8899 130.003 34.2901 130.321 34.6285C130.621 34.9231 130.978 35.1543 131.369 35.308C131.761 35.4618 132.179 35.5351 132.6 35.5235H132.598ZM146.128 37.7235C145.116 37.7406 144.115 37.5103 143.213 37.0525C142.37 36.6196 141.668 35.9557 141.189 35.1385C140.677 34.2301 140.422 33.1996 140.452 32.1575V31.8055C140.424 30.7606 140.678 29.7275 141.189 28.8155C141.664 27.9949 142.367 27.3299 143.213 26.9015C144.118 26.4508 145.117 26.2244 146.128 26.2415C147.134 26.2241 148.129 26.4505 149.028 26.9015C149.871 27.3318 150.571 27.9965 151.045 28.8155C151.556 29.7281 151.811 30.7619 151.782 31.8075V32.1595C151.811 33.2016 151.557 34.2321 151.045 35.1405C150.568 35.9548 149.87 36.6176 149.032 37.0525C148.134 37.511 147.136 37.7415 146.128 37.7235ZM146.128 35.4795C146.547 35.4947 146.964 35.4234 147.354 35.2701C147.744 35.1168 148.098 34.8848 148.394 34.5885C148.701 34.2519 148.936 33.8572 149.088 33.4277C149.239 32.9983 149.302 32.5429 149.274 32.0885V31.8685C149.302 31.4141 149.239 30.9586 149.088 30.5292C148.936 30.0997 148.701 29.705 148.394 29.3685C148.098 29.0721 147.744 28.8401 147.354 28.6868C146.964 28.5335 146.547 28.4622 146.128 28.4775C145.709 28.4622 145.292 28.5335 144.902 28.6868C144.512 28.8401 144.158 29.0721 143.862 29.3685C143.555 29.705 143.319 30.0997 143.168 30.5292C143.017 30.9586 142.954 31.4141 142.982 31.8685V32.0885C142.954 32.5429 143.017 32.9983 143.168 33.4277C143.319 33.8572 143.555 34.2519 143.862 34.5885C144.158 34.8848 144.512 35.1168 144.902 35.2701C145.292 35.4234 145.709 35.4947 146.128 35.4795ZM157.832 37.7235C157.122 37.7336 156.417 37.5946 155.764 37.3155C155.176 37.0674 154.669 36.6601 154.3 36.1395C153.927 35.5805 153.739 34.9189 153.761 34.2475C153.738 33.5897 153.927 32.942 154.3 32.3995C154.676 31.8875 155.192 31.4943 155.785 31.2665C156.472 30.9995 157.204 30.8687 157.941 30.8815H161.087V30.2215C161.098 29.9646 161.056 29.7082 160.966 29.4677C160.875 29.2271 160.737 29.0073 160.559 28.8215C160.334 28.6255 160.072 28.4769 159.789 28.3843C159.505 28.2917 159.206 28.257 158.909 28.2825C158.31 28.2383 157.716 28.4231 157.248 28.7995C156.868 29.1544 156.61 29.6202 156.511 30.1305L154.179 29.3605C154.355 28.7887 154.643 28.2577 155.026 27.7985C155.447 27.3049 155.979 26.9169 156.577 26.6655C157.331 26.359 158.14 26.2129 158.953 26.2365C160.165 26.1667 161.359 26.5467 162.308 27.3035C162.728 27.6965 163.056 28.1779 163.267 28.713C163.478 29.2481 163.568 29.8234 163.53 30.3975V34.6655C163.53 35.1055 163.735 35.3255 164.146 35.3255H165.07V37.4155H163.288C162.822 37.4344 162.363 37.2933 161.988 37.0155C161.824 36.8891 161.692 36.7253 161.604 36.5378C161.516 36.3503 161.474 36.1445 161.482 35.9375V35.8935H161.11C160.985 36.1596 160.83 36.4106 160.648 36.6415C160.381 36.9714 160.038 37.2319 159.648 37.4005C159.073 37.6387 158.454 37.7489 157.832 37.7235ZM158.25 35.6555C159 35.6878 159.733 35.432 160.3 34.9405C160.564 34.6964 160.771 34.3977 160.907 34.0651C161.043 33.7326 161.105 33.3744 161.088 33.0155V32.7955H158.1C157.634 32.7741 157.173 32.8971 156.78 33.1475C156.614 33.2622 156.481 33.4175 156.392 33.5985C156.304 33.7795 156.263 33.9802 156.274 34.1815C156.269 34.3885 156.314 34.5937 156.406 34.7795C156.498 34.9653 156.633 35.1262 156.8 35.2485C157.225 35.5413 157.735 35.6845 158.25 35.6555ZM167.16 37.4155V26.5475H169.646V27.8015H170.02C170.154 27.3793 170.446 27.0249 170.834 26.8115C171.256 26.5966 171.725 26.4907 172.198 26.5035H173.518V28.7475H172.154C171.509 28.7179 170.875 28.9252 170.372 29.3305C170.132 29.5598 169.946 29.8397 169.828 30.1499C169.71 30.4601 169.663 30.7927 169.69 31.1235V37.4155H167.16ZM179.81 37.7235C178.946 37.7276 178.096 37.5038 177.346 37.0745C176.569 36.6275 175.936 35.9685 175.52 35.1745C175.043 34.2431 174.808 33.2065 174.838 32.1605V31.8055C174.808 30.7594 175.043 29.7228 175.52 28.7915C175.934 27.9997 176.563 27.341 177.335 26.8915C178.088 26.4594 178.942 26.2354 179.81 26.2425C180.391 26.2287 180.971 26.3105 181.526 26.4845C181.94 26.6151 182.324 26.8242 182.659 27.1005C182.929 27.3301 183.156 27.6057 183.33 27.9145H183.704V22.0145H186.212V37.4155H183.748V35.9855H183.374C183.065 36.4708 182.652 36.8809 182.164 37.1855C181.447 37.5877 180.63 37.7745 179.81 37.7235ZM180.558 35.5235C180.976 35.536 181.393 35.4635 181.782 35.3103C182.172 35.1572 182.526 34.9266 182.824 34.6325C183.139 34.2922 183.381 33.8914 183.535 33.4546C183.69 33.0177 183.754 32.5539 183.724 32.0915V31.8715C183.756 31.4079 183.694 30.9427 183.54 30.504C183.387 30.0653 183.147 29.6623 182.833 29.3195C182.533 29.0263 182.176 28.7972 181.785 28.6459C181.393 28.4946 180.975 28.4244 180.556 28.4395C180.137 28.4273 179.72 28.4989 179.329 28.65C178.938 28.8011 178.581 29.0287 178.279 29.3195C177.959 29.6589 177.713 30.0608 177.556 30.5C177.399 30.9392 177.334 31.4061 177.366 31.8715V32.0915C177.336 32.555 177.401 33.0197 177.558 33.4568C177.716 33.8939 177.961 34.2941 178.279 34.6325C178.58 34.9264 178.936 35.1568 179.328 35.3099C179.719 35.463 180.138 35.5356 180.558 35.5235Z" fill="#8DFF26"/>
<path d="M30.148 2.68672e-05C36.0751 0.0292673 41.8606 1.81356 46.7746 5.12773C51.6886 8.44189 55.5107 13.1374 57.7586 18.6217C60.0066 24.106 60.5796 30.1333 59.4054 35.9429C58.2312 41.7526 55.3623 47.0842 51.1609 51.265C46.9595 55.4458 41.6138 58.2883 35.7985 59.434C29.9831 60.5796 23.9587 59.9769 18.4856 57.702C13.0124 55.4271 8.33576 51.5819 5.04582 46.6516C1.75587 41.7214 7.21269e-05 35.9271 0 30C0.0285942 22.0267 3.21879 14.3903 8.87068 8.76611C14.5226 3.14196 22.1746 -0.0106175 30.148 2.68672e-05V2.68672e-05ZM30.148 54.957C35.0787 54.9327 39.8917 53.4484 43.9797 50.6914C48.0676 47.9343 51.2473 44.0281 53.1174 39.4657C54.9875 34.9034 55.4642 29.8892 54.4874 25.0562C53.5105 20.2231 51.124 15.7877 47.6288 12.3097C44.1337 8.83173 39.6866 6.467 34.8488 5.51395C30.011 4.56091 24.9993 5.06227 20.4462 6.95477C15.893 8.84726 12.0025 12.0461 9.26562 16.1475C6.52871 20.249 5.06806 25.0692 5.068 30C5.09183 36.633 7.74575 42.9857 12.4475 47.6644C17.1493 52.3432 23.515 54.9658 30.148 54.957V54.957Z" fill="url(#paint0_linear_108_75)"/>
<path d="M39.122 47.8061C38.8471 47.8066 38.5748 47.7527 38.3207 47.6475C38.0667 47.5423 37.8361 47.3878 37.642 47.1931L22.089 31.6401C22.024 31.5659 21.9633 31.4881 21.907 31.4071C21.8307 31.2939 21.7661 31.1732 21.714 31.0471C21.6628 30.921 21.6236 30.7905 21.597 30.6571C21.5681 30.5203 21.5544 30.3808 21.556 30.2411C21.5558 30.1065 21.5682 29.9723 21.593 29.8401C21.621 29.7037 21.6601 29.5699 21.71 29.4401C21.7624 29.3156 21.827 29.1967 21.903 29.0851C21.973 28.9614 22.0561 28.8457 22.151 28.7401C22.5493 28.3507 23.084 28.1325 23.641 28.1321C23.7755 28.1306 23.9097 28.1444 24.041 28.1731C24.1748 28.1982 24.3055 28.2375 24.431 28.2901C24.5572 28.3421 24.6778 28.4068 24.791 28.4831C24.9051 28.559 25.0119 28.6454 25.11 28.7411L25.186 28.8221L36.97 40.6221L39.026 42.6801C42.1014 38.8419 43.6581 34.0069 43.4 29.0954C43.1418 24.1839 41.0868 19.5387 37.626 16.0441C37.4113 15.8274 37.2463 15.5666 37.1426 15.2797C37.0389 14.9928 36.9989 14.6868 37.0254 14.3829C37.052 14.079 37.1444 13.7845 37.2963 13.52C37.4482 13.2555 37.656 13.0272 37.905 12.8511C38.2425 12.6118 38.6464 12.4842 39.06 12.4861C39.3605 12.4885 39.6575 12.5502 39.9341 12.6676C40.2107 12.785 40.4615 12.9557 40.672 13.1701C45.1573 17.7015 47.6661 23.8244 47.65 30.2003C47.6339 36.5762 45.0942 42.6863 40.586 47.1951C40.1977 47.5838 39.6715 47.8035 39.122 47.8061ZM21.177 47.5401C20.9021 47.5406 20.6298 47.4867 20.3757 47.3815C20.1217 47.2763 19.8911 47.1219 19.697 46.9271C15.1817 42.3994 12.646 36.2659 12.646 29.8716C12.646 23.4772 15.1817 17.3437 19.697 12.8161C19.8914 12.6217 20.1221 12.4675 20.3761 12.3623C20.63 12.2571 20.9022 12.203 21.177 12.203C21.4519 12.203 21.7241 12.2571 21.978 12.3623C22.2319 12.4675 22.4627 12.6217 22.657 12.8161L38.235 28.3921C38.4294 28.5864 38.5836 28.8171 38.6887 29.0711C38.7939 29.325 38.8481 29.5972 38.8481 29.8721C38.8481 30.1469 38.7939 30.4191 38.6887 30.673C38.5836 30.927 38.4294 31.1577 38.235 31.3521C38.0407 31.5464 37.8099 31.7006 37.556 31.8058C37.3021 31.911 37.0299 31.9651 36.755 31.9651C36.4802 31.9651 36.208 31.911 35.9541 31.8058C35.7001 31.7006 35.4694 31.5464 35.275 31.3521L27.324 23.3971L21.258 17.3291C18.1851 21.1645 16.6297 25.9959 16.8879 30.9037C17.146 35.8116 19.1997 40.4531 22.658 43.9451C22.9479 44.2404 23.1447 44.6144 23.224 45.0206C23.3033 45.4268 23.2615 45.8473 23.1038 46.23C22.9462 46.6127 22.6797 46.9406 22.3373 47.1732C21.995 47.4057 21.5919 47.5326 21.178 47.5381L21.177 47.5401Z" fill="url(#paint1_linear_108_75)"/>
<defs>
<linearGradient id="paint0_linear_108_75" x1="30" y1="0" x2="30" y2="59.9997" gradientUnits="userSpaceOnUse">
<stop stop-color="#72FFB6"/>
<stop offset="1" stop-color="#8CFF2F"/>
</linearGradient>
<linearGradient id="paint1_linear_108_75" x1="47.3351" y1="34.6329" x2="12.9212" y2="25.7" gradientUnits="userSpaceOnUse">
<stop stop-color="#6CFFD3"/>
<stop offset="1" stop-color="#9BFF00"/>
</linearGradient>
</defs>
</svg>
