<svg width="224" height="120" viewBox="0 0 224 120" fill="none" xmlns="http://www.w3.org/2000/svg">
<path d="M111.012 66V63.668H113.08V52.932H111.012V50.6H117.282C118.996 50.4821 120.687 51.0431 121.99 52.162C122.569 52.7892 123.012 53.5291 123.292 54.3354C123.572 55.1416 123.683 55.997 123.618 56.848V59.748C123.684 60.5997 123.573 61.4559 123.293 62.2629C123.013 63.0699 122.569 63.8104 121.99 64.438C120.687 65.5569 118.996 66.118 117.282 66H111.012ZM115.72 63.6H117.3C117.804 63.6414 118.311 63.5767 118.789 63.41C119.266 63.2432 119.703 62.9782 120.072 62.632C120.72 61.8508 121.042 60.8504 120.972 59.838V56.782C121.048 55.7589 120.725 54.7461 120.072 53.955C119.701 53.6125 119.263 53.3507 118.786 53.1863C118.309 53.0219 117.803 52.9585 117.3 53H115.72V63.6ZM129.6 66.308C128.89 66.3179 128.187 66.1789 127.534 65.9C126.946 65.6516 126.44 65.2439 126.071 64.723C125.698 64.1641 125.51 63.5025 125.532 62.831C125.509 62.1732 125.698 61.5256 126.071 60.983C126.447 60.4711 126.963 60.0779 127.556 59.85C128.243 59.5831 128.975 59.4523 129.712 59.465H132.858V58.805C132.869 58.5482 132.827 58.2918 132.737 58.0512C132.646 57.8107 132.508 57.5909 132.33 57.405C132.105 57.2091 131.843 57.0604 131.56 56.9678C131.276 56.8752 130.977 56.8406 130.68 56.866C130.081 56.8219 129.487 57.0067 129.019 57.383C128.639 57.738 128.381 58.2038 128.282 58.714L125.95 57.944C126.127 57.3735 126.416 56.8439 126.8 56.386C127.221 55.8925 127.753 55.5044 128.351 55.253C129.105 54.9466 129.914 54.8005 130.727 54.824C131.939 54.7543 133.133 55.1342 134.082 55.891C134.501 56.2841 134.828 56.7652 135.038 57.2997C135.249 57.8342 135.338 58.4088 135.3 58.982V63.25C135.3 63.69 135.505 63.91 135.916 63.91H136.84V66H135.058C134.592 66.019 134.133 65.8779 133.758 65.6C133.594 65.4737 133.462 65.3099 133.374 65.1224C133.286 64.9349 133.244 64.729 133.252 64.522V64.478H132.88C132.755 64.7442 132.6 64.9951 132.418 65.226C132.151 65.556 131.808 65.8164 131.418 65.985C130.843 66.2235 130.222 66.3338 129.6 66.308V66.308ZM130.02 64.24C130.768 64.2714 131.5 64.0156 132.066 63.525C132.33 63.2814 132.538 62.9828 132.675 62.6502C132.812 62.3177 132.874 61.9592 132.858 61.6V61.38H129.866C129.4 61.3587 128.939 61.4816 128.546 61.732C128.38 61.8468 128.247 62.0021 128.158 62.1831C128.07 62.3641 128.029 62.5648 128.04 62.766C128.035 62.9733 128.081 63.1786 128.173 63.3644C128.265 63.5502 128.4 63.711 128.568 63.833C128.993 64.1263 129.504 64.2695 130.02 64.24V64.24ZM143.33 66.308C142.105 66.3583 140.893 66.0361 139.854 65.384C139.402 65.0767 139.02 64.6763 138.735 64.2097C138.449 63.743 138.267 63.2208 138.2 62.678L140.532 62.084C140.601 62.5633 140.79 63.0173 141.082 63.404C141.337 63.7201 141.676 63.9568 142.061 64.086C142.469 64.2218 142.896 64.2893 143.326 64.286C143.869 64.324 144.411 64.1934 144.877 63.912C145.035 63.8101 145.166 63.6701 145.256 63.5049C145.346 63.3396 145.394 63.1544 145.394 62.966C145.402 62.7871 145.36 62.6095 145.271 62.4537C145.183 62.298 145.052 62.1705 144.894 62.086C144.424 61.8478 143.92 61.6839 143.4 61.6L142.718 61.49C142.017 61.3575 141.332 61.1548 140.672 60.885C140.099 60.6587 139.589 60.2963 139.187 59.829C138.802 59.348 138.603 58.7446 138.626 58.129C138.602 57.6556 138.697 57.1837 138.902 56.7563C139.107 56.329 139.416 55.9596 139.8 55.682C140.712 55.0727 141.795 54.772 142.891 54.824C143.955 54.7813 145.007 55.0654 145.905 55.638C146.672 56.146 147.222 56.9231 147.445 57.816L145.113 58.516C145.082 58.2564 144.998 58.006 144.865 57.7807C144.733 57.5554 144.555 57.36 144.343 57.207C143.907 56.9394 143.402 56.8055 142.891 56.822C142.42 56.7939 141.95 56.9007 141.538 57.13C141.388 57.2215 141.265 57.3513 141.182 57.5059C141.099 57.6606 141.059 57.8346 141.065 58.01C141.058 58.184 141.099 58.3565 141.184 58.5081C141.27 58.6597 141.396 58.7844 141.549 58.868C141.953 59.0858 142.394 59.2275 142.849 59.286L143.531 59.418C144.275 59.5482 145.007 59.7396 145.72 59.99C146.316 60.1873 146.85 60.536 147.271 61.002C147.674 61.5057 147.878 62.14 147.843 62.784C147.869 63.2863 147.771 63.7873 147.558 64.2428C147.344 64.6982 147.022 65.0939 146.619 65.395C145.651 66.049 144.496 66.3696 143.33 66.308V66.308ZM150.392 66V50.6H152.922V56.562H153.3C153.442 56.2793 153.636 56.0256 153.872 55.814C154.176 55.541 154.531 55.3315 154.917 55.198C155.445 55.0218 156 54.9399 156.556 54.956C157.333 54.9411 158.101 55.1348 158.778 55.517C159.418 55.8879 159.94 56.4335 160.281 57.09C160.656 57.8331 160.842 58.6578 160.82 59.49V66H158.29V59.686C158.318 59.3312 158.275 58.9742 158.164 58.6362C158.052 58.2981 157.875 57.9856 157.641 57.717C157.394 57.4901 157.103 57.3157 156.787 57.2041C156.47 57.0926 156.135 57.0463 155.8 57.068C155.404 57.0486 155.008 57.1186 154.642 57.2729C154.277 57.4271 153.951 57.6616 153.688 57.959C153.132 58.6847 152.858 59.5877 152.918 60.5V66H150.392ZM170.346 66.308C169.522 66.3576 168.702 66.1706 167.981 65.769C167.491 65.4707 167.079 65.0592 166.781 64.569H166.407V66H163.922V50.6H166.452V56.5H166.826C167 56.1913 167.227 55.9157 167.497 55.686C167.828 55.4113 168.209 55.2023 168.619 55.07C169.177 54.8946 169.761 54.8128 170.346 54.828C171.211 54.8201 172.061 55.0442 172.81 55.477C173.576 55.9299 174.199 56.588 174.61 57.377C175.09 58.3074 175.327 59.3437 175.3 60.39V60.742C175.33 61.7881 175.095 62.8247 174.618 63.756C174.204 64.5493 173.573 65.2091 172.8 65.659C172.054 66.0893 171.207 66.3133 170.346 66.308V66.308ZM169.598 64.108C170.016 64.1206 170.433 64.048 170.822 63.8949C171.212 63.7417 171.566 63.5111 171.864 63.217C172.179 62.8768 172.421 62.476 172.575 62.0392C172.73 61.6023 172.794 61.1385 172.764 60.676V60.456C172.797 59.992 172.735 59.5261 172.582 59.0867C172.429 58.6473 172.189 58.2435 171.875 57.9C171.575 57.6069 171.218 57.3777 170.827 57.2265C170.435 57.0752 170.017 57.005 169.598 57.02C169.179 57.0079 168.762 57.0795 168.371 57.2306C167.98 57.3817 167.623 57.6093 167.321 57.9C167.001 58.2395 166.755 58.6414 166.598 59.0806C166.441 59.5198 166.376 59.9867 166.408 60.452V60.672C166.378 61.1355 166.443 61.6003 166.6 62.0374C166.758 62.4745 167.003 62.8747 167.321 63.213C167.621 63.5077 167.978 63.7388 168.369 63.8926C168.761 64.0464 169.179 64.1197 169.6 64.108H169.598ZM183.128 66.308C182.116 66.3252 181.115 66.0948 180.213 65.637C179.37 65.2041 178.668 64.5403 178.189 63.723C177.677 62.8147 177.422 61.7842 177.452 60.742V60.39C177.424 59.3452 177.678 58.3121 178.189 57.4C178.664 56.5794 179.367 55.9145 180.213 55.486C181.118 55.0354 182.117 54.809 183.128 54.826C184.134 54.8086 185.129 55.0351 186.028 55.486C186.871 55.9164 187.571 56.581 188.045 57.4C188.556 58.3127 188.811 59.3465 188.782 60.392V60.744C188.811 61.7862 188.557 62.8167 188.045 63.725C187.568 64.5394 186.87 65.2022 186.032 65.637C185.134 66.0956 184.136 66.3261 183.128 66.308V66.308ZM183.128 64.064C183.547 64.0793 183.964 64.008 184.354 63.8547C184.744 63.7014 185.098 63.4694 185.394 63.173C185.701 62.8365 185.936 62.4418 186.088 62.0123C186.239 61.5829 186.302 61.1274 186.274 60.673V60.453C186.302 59.9986 186.239 59.5432 186.088 59.1138C185.936 58.6843 185.701 58.2896 185.394 57.953C185.098 57.6567 184.744 57.4247 184.354 57.2714C183.964 57.118 183.547 57.0468 183.128 57.062C182.709 57.0468 182.292 57.118 181.902 57.2714C181.512 57.4247 181.158 57.6567 180.862 57.953C180.555 58.2896 180.319 58.6843 180.168 59.1138C180.017 59.5432 179.954 59.9986 179.982 60.453V60.673C179.954 61.1274 180.017 61.5829 180.168 62.0123C180.319 62.4418 180.555 62.8365 180.862 63.173C181.158 63.4694 181.512 63.7014 181.902 63.8547C182.292 64.008 182.709 64.0793 183.128 64.064V64.064ZM194.832 66.308C194.122 66.3182 193.417 66.1792 192.764 65.9C192.176 65.6519 191.669 65.2447 191.3 64.724C190.927 64.1651 190.739 63.5035 190.761 62.832C190.738 62.1742 190.927 61.5266 191.3 60.984C191.676 60.4721 192.192 60.0789 192.785 59.851C193.472 59.5841 194.204 59.4533 194.941 59.466H198.087V58.806C198.098 58.5492 198.056 58.2928 197.966 58.0522C197.875 57.8117 197.737 57.5919 197.559 57.406C197.334 57.2101 197.072 57.0614 196.789 56.9688C196.505 56.8762 196.206 56.8416 195.909 56.867C195.31 56.8229 194.716 57.0077 194.248 57.384C193.868 57.7389 193.61 58.2048 193.511 58.715L191.179 57.945C191.355 57.3733 191.643 56.8423 192.026 56.383C192.447 55.8895 192.979 55.5014 193.577 55.25C194.331 54.9436 195.14 54.7975 195.953 54.821C197.165 54.7513 198.359 55.1312 199.308 55.888C199.728 56.2811 200.056 56.7625 200.267 57.2976C200.478 57.8327 200.568 58.408 200.53 58.982V63.25C200.53 63.69 200.735 63.91 201.146 63.91H202.07V66H200.288C199.822 66.019 199.363 65.8779 198.988 65.6C198.824 65.4737 198.692 65.3099 198.604 65.1224C198.516 64.9349 198.474 64.729 198.482 64.522V64.478H198.11C197.985 64.7442 197.83 64.9951 197.648 65.226C197.381 65.556 197.038 65.8164 196.648 65.985C196.073 66.2233 195.454 66.3335 194.832 66.308V66.308ZM195.25 64.24C196 64.2724 196.733 64.0165 197.3 63.525C197.564 63.281 197.771 62.9822 197.907 62.6497C198.043 62.3172 198.105 61.9589 198.088 61.6V61.38H195.1C194.634 61.3587 194.173 61.4816 193.78 61.732C193.614 61.8468 193.481 62.0021 193.392 62.1831C193.304 62.3641 193.263 62.5648 193.274 62.766C193.269 62.9731 193.314 63.1783 193.406 63.3641C193.498 63.5499 193.633 63.7108 193.8 63.833C194.225 64.1259 194.735 64.2691 195.25 64.24V64.24ZM204.16 66V55.132H206.646V56.386H207.02C207.154 55.9639 207.446 55.6095 207.834 55.396C208.256 55.1812 208.725 55.0753 209.198 55.088H210.518V57.332H209.154C208.509 57.3024 207.875 57.5098 207.372 57.915C207.132 58.1444 206.946 58.4243 206.828 58.7345C206.71 59.0447 206.663 59.3773 206.69 59.708V66H204.16ZM216.81 66.308C215.946 66.3122 215.096 66.0883 214.346 65.659C213.569 65.2121 212.936 64.553 212.52 63.759C212.043 62.8277 211.808 61.7911 211.838 60.745V60.39C211.808 59.344 212.043 58.3074 212.52 57.376C212.934 56.5843 213.563 55.9256 214.335 55.476C215.088 55.044 215.942 54.82 216.81 54.827C217.391 54.8133 217.971 54.895 218.526 55.069C218.94 55.1997 219.324 55.4088 219.659 55.685C219.929 55.9147 220.156 56.1903 220.33 56.499H220.704V50.599H223.212V66H220.748V64.57H220.374C220.065 65.0554 219.652 65.4655 219.164 65.77C218.447 66.1723 217.63 66.3591 216.81 66.308V66.308ZM217.558 64.108C217.976 64.1206 218.393 64.048 218.782 63.8949C219.172 63.7417 219.526 63.5111 219.824 63.217C220.139 62.8768 220.381 62.476 220.535 62.0392C220.69 61.6023 220.754 61.1385 220.724 60.676V60.456C220.756 59.9925 220.694 59.5273 220.54 59.0886C220.387 58.6499 220.147 58.2469 219.833 57.904C219.533 57.6109 219.176 57.3817 218.785 57.2305C218.393 57.0792 217.975 57.009 217.556 57.024C217.137 57.0119 216.72 57.0835 216.329 57.2346C215.938 57.3857 215.581 57.6133 215.279 57.904C214.959 58.2435 214.713 58.6454 214.556 59.0846C214.399 59.5238 214.334 59.9907 214.366 60.456V60.676C214.336 61.1395 214.401 61.6043 214.558 62.0414C214.716 62.4785 214.961 62.8787 215.279 63.217C215.58 63.511 215.936 63.7414 216.328 63.8945C216.719 64.0476 217.138 64.1202 217.558 64.108V64.108Z" fill="#8DFF26"/>
<g filter="url(#filter0_d_108_60)">
<path d="M60.148 30C66.0751 30.0293 71.8606 31.8136 76.7746 35.1277C81.6886 38.4419 85.5107 43.1374 87.7586 48.6217C90.0066 54.106 90.5796 60.1333 89.4054 65.9429C88.2312 71.7526 85.3623 77.0842 81.1609 81.265C76.9595 85.4458 71.6138 88.2883 65.7985 89.434C59.9831 90.5796 53.9587 89.9769 48.4856 87.702C43.0124 85.4271 38.3358 81.5819 35.0458 76.6516C31.7559 71.7214 30.0001 65.9271 30 60C30.0286 52.0267 33.2188 44.3903 38.8707 38.7661C44.5226 33.142 52.1746 29.9894 60.148 30V30ZM60.148 84.957C65.0787 84.9327 69.8917 83.4484 73.9797 80.6914C78.0676 77.9343 81.2473 74.0281 83.1174 69.4657C84.9875 64.9034 85.4642 59.8892 84.4874 55.0562C83.5105 50.2231 81.124 45.7877 77.6288 42.3097C74.1337 38.8317 69.6866 36.467 64.8488 35.514C60.011 34.5609 54.9993 35.0623 50.4462 36.9548C45.893 38.8473 42.0025 42.0461 39.2656 46.1475C36.5287 50.249 35.0681 55.0692 35.068 60C35.0918 66.633 37.7457 72.9857 42.4475 77.6644C47.1493 82.3432 53.515 84.9658 60.148 84.957V84.957Z" fill="url(#paint0_linear_108_60)"/>
</g>
<g filter="url(#filter1_d_108_60)">
<path d="M69.122 77.806C68.8471 77.8066 68.5748 77.7527 68.3207 77.6475C68.0667 77.5423 67.8361 77.3878 67.642 77.193L52.089 61.64C52.024 61.5658 51.9633 61.488 51.907 61.407C51.8307 61.2938 51.7661 61.1732 51.714 61.047C51.6628 60.921 51.6236 60.7904 51.597 60.657C51.5681 60.5203 51.5544 60.3808 51.556 60.241C51.5558 60.1065 51.5682 59.9722 51.593 59.84C51.621 59.7037 51.6601 59.5699 51.71 59.44C51.7624 59.3156 51.827 59.1966 51.903 59.085C51.973 58.9614 52.0561 58.8457 52.151 58.74C52.5493 58.3507 53.084 58.1325 53.641 58.132C53.7755 58.1306 53.9097 58.1444 54.041 58.173C54.1748 58.1982 54.3055 58.2374 54.431 58.29C54.5572 58.3421 54.6778 58.4067 54.791 58.483C54.9051 58.559 55.0119 58.6454 55.11 58.741L55.186 58.822L66.97 70.622L69.026 72.68C72.1014 68.8418 73.6581 64.0068 73.4 59.0953C73.1418 54.1838 71.0868 49.5387 67.626 46.044C67.4113 45.8274 67.2463 45.5665 67.1426 45.2797C67.0389 44.9928 66.9989 44.6867 67.0254 44.3829C67.052 44.079 67.1444 43.7845 67.2963 43.52C67.4482 43.2554 67.656 43.0271 67.905 42.851C68.2425 42.6118 68.6464 42.4842 69.06 42.486C69.3605 42.4885 69.6575 42.5502 69.9341 42.6676C70.2107 42.7849 70.4615 42.9557 70.672 43.17C75.1573 47.7015 77.6661 53.8244 77.65 60.2003C77.6339 66.5761 75.0942 72.6863 70.586 77.195C70.1977 77.5838 69.6715 77.8034 69.122 77.806V77.806ZM51.177 77.54C50.9021 77.5406 50.6298 77.4867 50.3757 77.3815C50.1217 77.2763 49.8911 77.1218 49.697 76.927C45.1817 72.3994 42.646 66.2659 42.646 59.8715C42.646 53.4771 45.1817 47.3437 49.697 42.816C49.8914 42.6217 50.1221 42.4675 50.3761 42.3623C50.63 42.2571 50.9022 42.203 51.177 42.203C51.4519 42.203 51.7241 42.2571 51.978 42.3623C52.2319 42.4675 52.4627 42.6217 52.657 42.816L68.235 58.392C68.4294 58.5864 68.5836 58.8171 68.6887 59.0711C68.7939 59.325 68.8481 59.5972 68.8481 59.872C68.8481 60.1469 68.7939 60.4191 68.6887 60.673C68.5836 60.9269 68.4294 61.1577 68.235 61.352C68.0407 61.5464 67.8099 61.7006 67.556 61.8057C67.3021 61.9109 67.0299 61.9651 66.755 61.9651C66.4802 61.9651 66.208 61.9109 65.9541 61.8057C65.7001 61.7006 65.4694 61.5464 65.275 61.352L57.324 53.397L51.258 47.329C48.1851 51.1645 46.6297 55.9959 46.8879 60.9037C47.146 65.8115 49.1997 70.4531 52.658 73.945C52.9479 74.2404 53.1447 74.6144 53.224 75.0206C53.3033 75.4268 53.2615 75.8473 53.1038 76.23C52.9462 76.6126 52.6797 76.9406 52.3373 77.1731C51.995 77.4057 51.5919 77.5326 51.178 77.538L51.177 77.54Z" fill="url(#paint1_linear_108_60)"/>
</g>
<defs>
<filter id="filter0_d_108_60" x="0" y="0" width="120" height="120" filterUnits="userSpaceOnUse" color-interpolation-filters="sRGB">
<feFlood flood-opacity="0" result="BackgroundImageFix"/>
<feColorMatrix in="SourceAlpha" type="matrix" values="0 0 0 0 0 0 0 0 0 0 0 0 0 0 0 0 0 0 127 0" result="hardAlpha"/>
<feOffset/>
<feGaussianBlur stdDeviation="15"/>
<feColorMatrix type="matrix" values="0 0 0 0 0.215686 0 0 0 0 0.831373 0 0 0 0 0.482353 0 0 0 0.302 0"/>
<feBlend mode="normal" in2="BackgroundImageFix" result="effect1_dropShadow_108_60"/>
<feBlend mode="normal" in="SourceGraphic" in2="effect1_dropShadow_108_60" result="shape"/>
</filter>
<filter id="filter1_d_108_60" x="12.646" y="12.203" width="95.0042" height="95.6031" filterUnits="userSpaceOnUse" color-interpolation-filters="sRGB">
<feFlood flood-opacity="0" result="BackgroundImageFix"/>
<feColorMatrix in="SourceAlpha" type="matrix" values="0 0 0 0 0 0 0 0 0 0 0 0 0 0 0 0 0 0 127 0" result="hardAlpha"/>
<feOffset/>
<feGaussianBlur stdDeviation="15"/>
<feColorMatrix type="matrix" values="0 0 0 0 0.415686 0 0 0 0 0.690196 0 0 0 0 0.301961 0 0 0 0.302 0"/>
<feBlend mode="normal" in2="BackgroundImageFix" result="effect1_dropShadow_108_60"/>
<feBlend mode="normal" in="SourceGraphic" in2="effect1_dropShadow_108_60" result="shape"/>
</filter>
<linearGradient id="paint0_linear_108_60" x1="60" y1="30" x2="60" y2="89.9997" gradientUnits="userSpaceOnUse">
<stop stop-color="#72FFB6"/>
<stop offset="1" stop-color="#8CFF2F"/>
</linearGradient>
<linearGradient id="paint1_linear_108_60" x1="77.3351" y1="64.6329" x2="42.9212" y2="55.6999" gradientUnits="userSpaceOnUse">
<stop stop-color="#6CFFD3"/>
<stop offset="1" stop-color="#9BFF00"/>
</linearGradient>
</defs>
</svg>
