<svg id="Component_7_1" data-name="Component 7 – 1" xmlns="http://www.w3.org/2000/svg" width="25" height="25" viewBox="0 0 25 25">
  <g id="Rectangle_132" data-name="Rectangle 132" fill="none" stroke="#313f63" stroke-width="1">
    <rect width="25" height="25" rx="12.5" stroke="none"/>
    <rect x="0.5" y="0.5" width="24" height="24" rx="12" fill="none"/>
  </g>
  <g id="discord" transform="translate(8 8)">
    <path id="Path_271" data-name="Path 271" d="M9.465,52.443a8.8,8.8,0,0,0-.854-2.087A5.265,5.265,0,0,0,6.423,49l-.2.55a6.164,6.164,0,0,1,1.527.8A10.059,10.059,0,0,0,5,49.95a10.059,10.059,0,0,0-2.748.408,6.164,6.164,0,0,1,1.527-.8l-.2-.55a5.265,5.265,0,0,0-2.189,1.352,8.794,8.794,0,0,0-.854,2.087A19.321,19.321,0,0,0,0,55.694a3.326,3.326,0,0,0,2.963,1.4l.543-.786a5.775,5.775,0,0,1-1.72-.776l.325-.488a5.224,5.224,0,0,0,5.778,0l.325.488a5.775,5.775,0,0,1-1.72.776l.543.786A3.326,3.326,0,0,0,10,55.694,19.322,19.322,0,0,0,9.465,52.443Zm-5.82,1.533H3.059V53h.586Zm3.3,0H6.355V53h.586Z" transform="translate(0 -49.004)" fill="#313f63"/>
  </g>
</svg>
