<svg xmlns="http://www.w3.org/2000/svg" width="20.082" height="20.082" viewBox="0 0 20.082 20.082">
  <path id="noun-info-223370" d="M5.566,5.566a10.041,10.041,0,1,0,14.2,0A10.042,10.042,0,0,0,5.566,5.566Zm7.5,1.272a1.547,1.547,0,0,1,0,3.094,1.56,1.56,0,0,1-1.547-1.568A1.538,1.538,0,0,1,13.069,6.837ZM15.252,17.2a1.014,1.014,0,0,1-.212.36,2.763,2.763,0,0,1-2.035.911,6.659,6.659,0,0,1-1.123-.064,1.639,1.639,0,0,1-1.293-1.653l.254-1.653c.17-.954.339-1.929.509-2.882,0-.064.021-.127.021-.191,0-.4-.127-.551-.53-.593a4.244,4.244,0,0,1-.509-.085.373.373,0,0,1-.276-.382c.021-.17.127-.276.339-.318a1.939,1.939,0,0,1,.36-.021h2.925c.36,0,.572.17.572.53a4.255,4.255,0,0,1-.106.89c-.191,1.1-.4,2.183-.593,3.285-.064.36-.148.721-.191,1.081a1.5,1.5,0,0,0,.042.53.42.42,0,0,0,.466.339,1.958,1.958,0,0,0,.572-.17,3.952,3.952,0,0,1,.424-.212C15.125,16.82,15.315,16.969,15.252,17.2Z" transform="translate(-2.625 -2.625)" fill="#1f6100"/>
</svg>
