<svg xmlns="http://www.w3.org/2000/svg" xmlns:xlink="http://www.w3.org/1999/xlink" width="600" height="597.497" viewBox="0 0 600 597.497">
  <defs>
    <linearGradient id="linear-gradient" x1="0.5" x2="0.5" y2="1" gradientUnits="objectBoundingBox">
      <stop offset="0" stop-color="#72ffb6"/>
      <stop offset="1" stop-color="#8cff2f"/>
    </linearGradient>
    <filter id="Ellipse_420" x="0" y="0" width="600" height="597.497" filterUnits="userSpaceOnUse">
      <feOffset input="SourceAlpha"/>
      <feGaussianBlur stdDeviation="15" result="blur"/>
      <feFlood flood-color="#37d47b" flood-opacity="0.302"/>
      <feComposite operator="in" in2="blur"/>
      <feComposite in="SourceGraphic"/>
    </filter>
    <linearGradient id="linear-gradient-2" x1="0.991" y1="0.63" x2="0.01" y2="0.371" gradientUnits="objectBoundingBox">
      <stop offset="0" stop-color="#6cffd3"/>
      <stop offset="1" stop-color="#9bff00"/>
    </linearGradient>
    <filter id="Path_2459" x="106.964" y="103.168" width="386.075" height="391.162" filterUnits="userSpaceOnUse">
      <feOffset input="SourceAlpha"/>
      <feGaussianBlur stdDeviation="15" result="blur-2"/>
      <feFlood flood-color="#6ab04d" flood-opacity="0.302"/>
      <feComposite operator="in" in2="blur-2"/>
      <feComposite in="SourceGraphic"/>
    </filter>
  </defs>
  <g id="Group_1535" data-name="Group 1535" transform="translate(-1066 -247)">
    <g transform="matrix(1, 0, 0, 1, 1066, 247)" filter="url(#Ellipse_420)">
      <path id="Ellipse_420-2" data-name="Ellipse 420" d="M250-5C390.607-5,505,108.831,505,248.749S390.607,502.5,250,502.5-5,388.666-5,248.749,109.393-5,250-5Zm0,464.843c116.972,0,212.136-94.7,212.136-211.095S366.972,37.654,250,37.654,37.864,132.351,37.864,248.749,133.028,459.843,250,459.843Z" transform="translate(50 50)" fill="url(#linear-gradient)"/>
    </g>
    <g transform="matrix(1, 0, 0, 1, 1066, 247)" filter="url(#Path_2459)">
      <path id="Path_2459-2" data-name="Path 2459" d="M248.875,325.523a17.617,17.617,0,0,1-12.516-5.187L104.808,188.785h0a22.229,22.229,0,0,1-1.543-1.972,17.147,17.147,0,0,1-1.629-3.043,18.22,18.22,0,0,1-.986-3.3,16.029,16.029,0,0,1-.343-3.515,18.214,18.214,0,0,1,.3-3.429,21.437,21.437,0,0,1,1.029-3.343,17.146,17.146,0,0,1,1.629-3,16.586,16.586,0,0,1,2.1-2.915,18.046,18.046,0,0,1,12.6-5.144,15.131,15.131,0,0,1,3.386.343,16.376,16.376,0,0,1,3.3.986,17.146,17.146,0,0,1,3.043,1.629,18.816,18.816,0,0,1,2.7,2.186l.643.686,99.671,99.781,17.391,17.41a169.529,169.529,0,0,0-11.873-225.3,17.746,17.746,0,0,1,2.358-27,16.76,16.76,0,0,1,9.773-3.086,19.332,19.332,0,0,1,13.631,5.787c78.976,79.793,78.65,208.4-.729,287.791A17.617,17.617,0,0,1,248.875,325.523ZM97.093,323.251a17.618,17.618,0,0,1-12.516-5.187c-79.52-79.736-79.52-208.784,0-288.52a17.7,17.7,0,0,1,25.033,0L241.374,161.309a17.7,17.7,0,1,1-25.034,25.034l-67.256-67.282L97.778,67.736A169.4,169.4,0,0,0,109.609,292.86a17.876,17.876,0,0,1-12.516,30.391Z" transform="translate(127.03 123.81)" fill="url(#linear-gradient-2)"/>
    </g>
  </g>
</svg>
