<svg xmlns="http://www.w3.org/2000/svg" xmlns:xlink="http://www.w3.org/1999/xlink" width="195.67" height="78.763" viewBox="0 0 195.67 78.763">
  <defs>
    <linearGradient id="linear-gradient" x1="0.5" x2="0.5" y2="1" gradientUnits="objectBoundingBox">
      <stop offset="0" stop-color="#70ffc3"/>
      <stop offset="1" stop-color="#8cff28"/>
    </linearGradient>
    <linearGradient id="linear-gradient-2" y1="0.5" x2="1" y2="0.5" gradientUnits="objectBoundingBox">
      <stop offset="0" stop-color="#6cffd3"/>
      <stop offset="1" stop-color="#9bff00"/>
    </linearGradient>
    <linearGradient id="linear-gradient-3" x1="0.138" y1="0.189" x2="0.934" y2="0.751" gradientUnits="objectBoundingBox">
      <stop offset="0" stop-color="#6cffbd"/>
      <stop offset="1" stop-color="#83ff3a"/>
    </linearGradient>
    <linearGradient id="linear-gradient-4" x1="0.5" x2="0.5" y2="1" gradientUnits="objectBoundingBox">
      <stop offset="0" stop-color="#72ffb6"/>
      <stop offset="1" stop-color="#8cff2f"/>
    </linearGradient>
    <linearGradient id="linear-gradient-5" x1="0.991" y1="0.63" x2="0.01" y2="0.371" xlink:href="#linear-gradient-2"/>
  </defs>
  <g id="Layer_2" data-name="Layer 2" transform="translate(0 4.38)">
    <g id="Layer_1" data-name="Layer 1" transform="translate(0 -4.38)">
      <path id="Path_2488" data-name="Path 2488" d="M3.744-37.232H13.1L26.52-14.248h.52l-.52-7.176V-37.232h8.008V0H26L11.752-24.336h-.52l.52,7.176V0H3.744Zm38.272,0H66.56v7.7H50.128v7.488H64.9v7.7H50.128V0H42.016ZM79.872,0V-29.536h-10.4v-7.7H98.384v7.7h-10.4V0Z" transform="translate(95.17 50)" fill="#fff"/>
      <path id="Path_2489" data-name="Path 2489" d="M3.808,0V-9.656H.408v-2.516H9.86v2.516H6.46V0Zm7.684-12.172h4.59a4.944,4.944,0,0,1,1.768.3,3.751,3.751,0,0,1,1.318.825,3.515,3.515,0,0,1,.816,1.25,4.308,4.308,0,0,1,.28,1.572,3.061,3.061,0,0,1-.2,1.105,3.762,3.762,0,0,1-.527.944,3.958,3.958,0,0,1-.773.765,4.687,4.687,0,0,1-.952.552v.153L21-.17V0H17.969L14.892-4.386h-.748V0H11.492Zm4.59,5.338A1.5,1.5,0,0,0,17.2-7.251a1.412,1.412,0,0,0,.408-1.029,1.464,1.464,0,0,0-.382-1.028,1.482,1.482,0,0,0-1.148-.417H14.144v2.89Zm9.843-5.338h3.06L33.541,0H30.617l-.935-2.72H25.228L24.293,0H21.369Zm2.907,7.038-.884-2.55-.408-1.5h-.17l-.408,1.5-.884,2.55Zm16.49,3.162A6.048,6.048,0,0,1,40.443.272,6.47,6.47,0,0,1,37.91-.221a6.28,6.28,0,0,1-2.032-1.351,6.328,6.328,0,0,1-1.351-2.015,6.3,6.3,0,0,1-.493-2.5,6.3,6.3,0,0,1,.493-2.5A6.328,6.328,0,0,1,35.879-10.6a6.28,6.28,0,0,1,2.032-1.351,6.47,6.47,0,0,1,2.533-.493,6.1,6.1,0,0,1,2.592.51,6.423,6.423,0,0,1,2,1.479l-1.853,1.8a4.178,4.178,0,0,0-1.139-.91,3.227,3.227,0,0,0-1.581-.366,4.012,4.012,0,0,0-1.487.272,3.486,3.486,0,0,0-1.2.782,3.658,3.658,0,0,0-.8,1.216,4.113,4.113,0,0,0-.289,1.573,4.113,4.113,0,0,0,.289,1.572,3.658,3.658,0,0,0,.8,1.216,3.486,3.486,0,0,0,1.2.782,4.012,4.012,0,0,0,1.487.272,3.451,3.451,0,0,0,1.683-.391,4.271,4.271,0,0,0,1.292-1.122Zm20.706-10.2h3.349a7.032,7.032,0,0,1,2.576.442,5.287,5.287,0,0,1,1.9,1.241,5.35,5.35,0,0,1,1.182,1.921,7.217,7.217,0,0,1,.408,2.482A7.217,7.217,0,0,1,75.038-3.6a5.35,5.35,0,0,1-1.182,1.921,5.287,5.287,0,0,1-1.9,1.241A7.032,7.032,0,0,1,69.377,0H66.028ZM69.377-.578a6.4,6.4,0,0,0,2.235-.374,4.774,4.774,0,0,0,1.726-1.08,4.806,4.806,0,0,0,1.1-1.726,6.474,6.474,0,0,0,.391-2.329,6.474,6.474,0,0,0-.391-2.329,4.806,4.806,0,0,0-1.1-1.726,4.774,4.774,0,0,0-1.726-1.079,6.4,6.4,0,0,0-2.235-.374H66.64V-.578ZM80.7-12.172h.748L86.275,0h-.646L84.15-3.74H78L76.517,0h-.646Zm3.213,7.854-2.805-7.106h-.068L78.234-4.318Z" transform="translate(95.17 70.395)" fill="#fff"/>
      <rect id="Rectangle_1460" data-name="Rectangle 1460" width="10.265" height="3.969" rx="1.985" transform="translate(143 66.475)" fill="#fff"/>
      <path id="Path_2458" data-name="Path 2458" d="M229.654,95.011H229.6a1.368,1.368,0,0,1-.961-.45l-2.265-2.5a1.369,1.369,0,1,1,2.03-1.836l1.327,1.468,3.479-3.284a1.369,1.369,0,0,1,1.879,1.991l-4.5,4.243A1.369,1.369,0,0,1,229.654,95.011Z" transform="translate(-82.635 -29.79)" fill="url(#linear-gradient)"/>
      <ellipse id="Ellipse_421" data-name="Ellipse 421" cx="2.941" cy="2.941" rx="2.941" ry="2.941" transform="translate(186.618 61.355)" fill="url(#linear-gradient-2)"/>
      <path id="Ellipse_422" data-name="Ellipse 422" d="M5.61-.5A6.11,6.11,0,1,1-.5,5.61,6.117,6.117,0,0,1,5.61-.5Zm0,11.221A5.11,5.11,0,1,0,.5,5.61,5.116,5.116,0,0,0,5.61,10.721Z" transform="translate(183.949 58.686)" fill="url(#linear-gradient-3)"/>
      <g id="Group_1515" data-name="Group 1515" transform="translate(0 -2.914)">
        <path id="Ellipse_420" data-name="Ellipse 420" d="M34.576-5A39.382,39.382,0,1,1-5,34.381,39.524,39.524,0,0,1,34.576-5Zm0,72.143A32.762,32.762,0,1,0,1.652,34.381,32.88,32.88,0,0,0,34.576,67.143Z" transform="translate(5 7.914)" fill="url(#linear-gradient-4)"/>
        <path id="Path_2459" data-name="Path 2459" d="M59.691,71.1a2.734,2.734,0,0,1-1.943-.8L37.332,49.879h0a3.45,3.45,0,0,1-.239-.306,2.661,2.661,0,0,1-.253-.472,2.828,2.828,0,0,1-.153-.512,2.488,2.488,0,0,1-.053-.545,2.827,2.827,0,0,1,.047-.532,3.327,3.327,0,0,1,.16-.519,2.661,2.661,0,0,1,.253-.466,2.574,2.574,0,0,1,.326-.452,2.8,2.8,0,0,1,1.956-.8,2.348,2.348,0,0,1,.526.053,2.542,2.542,0,0,1,.512.153,2.661,2.661,0,0,1,.472.253,2.92,2.92,0,0,1,.419.339l.1.106L59.572,64.368A26.311,26.311,0,0,0,57.729,29.4a2.754,2.754,0,0,1,.366-4.191,2.6,2.6,0,0,1,1.517-.479,3,3,0,0,1,2.115.9A31.666,31.666,0,0,1,61.614,70.3,2.734,2.734,0,0,1,59.691,71.1Zm-23.556-.353a2.734,2.734,0,0,1-1.943-.8,31.706,31.706,0,0,1,0-44.778,2.747,2.747,0,0,1,3.885,0l20.45,20.45A2.747,2.747,0,1,1,54.642,49.5l-18.4-18.408a26.291,26.291,0,0,0,1.836,34.939,2.774,2.774,0,0,1-1.943,4.717Z" transform="translate(-8.348 -5.451)" fill="url(#linear-gradient-5)"/>
      </g>
    </g>
  </g>
</svg>
