<svg xmlns="http://www.w3.org/2000/svg" xmlns:xlink="http://www.w3.org/1999/xlink" width="195.67" height="78.763" viewBox="0 0 195.67 78.763">
  <defs>
    <linearGradient id="linear-gradient" x1="0.5" x2="0.5" y2="1" gradientUnits="objectBoundingBox">
      <stop offset="0" stop-color="#70ffc3"/>
      <stop offset="1" stop-color="#8cff28"/>
    </linearGradient>
    <linearGradient id="linear-gradient-2" y1="0.5" x2="1" y2="0.5" gradientUnits="objectBoundingBox">
      <stop offset="0" stop-color="#6cffd3"/>
      <stop offset="1" stop-color="#9bff00"/>
    </linearGradient>
    <linearGradient id="linear-gradient-3" x1="0.138" y1="0.189" x2="0.934" y2="0.751" gradientUnits="objectBoundingBox">
      <stop offset="0" stop-color="#6cffbd"/>
      <stop offset="1" stop-color="#83ff3a"/>
    </linearGradient>
    <linearGradient id="linear-gradient-4" x1="0.5" x2="0.5" y2="1" gradientUnits="objectBoundingBox">
      <stop offset="0" stop-color="#72ffb6"/>
      <stop offset="1" stop-color="#8cff2f"/>
    </linearGradient>
    <linearGradient id="linear-gradient-5" x1="0.991" y1="0.63" x2="0.01" y2="0.371" xlink:href="#linear-gradient-2"/>
  </defs>
  <g id="Layer_2" data-name="Layer 2" transform="translate(0 4.38)">
    <g id="Layer_1" data-name="Layer 1" transform="translate(0 -4.38)">
      <text id="NFT" transform="translate(95.17 50)" fill="#fff" font-size="52" font-family="Product Sans Black"><tspan x="0" y="0">NFT</tspan></text>
      <text id="TRAC_DA" data-name="TRAC     DA" transform="translate(95.17 70.395)" fill="#fff" font-size="17" font-family="ProductSans-Black, Product Sans Black" font-weight="800"><tspan x="0" y="0" xml:space="preserve">TRAC     </tspan><tspan y="0" font-family="Product Sans Thin" font-weight="400">DA</tspan></text>
      <rect id="Rectangle_1460" data-name="Rectangle 1460" width="10.265" height="3.969" rx="1.985" transform="translate(143 66.475)" fill="#fff"/>
      <path id="Path_2458" data-name="Path 2458" d="M229.654,95.011H229.6a1.368,1.368,0,0,1-.961-.45l-2.265-2.5a1.369,1.369,0,1,1,2.03-1.836l1.327,1.468,3.479-3.284a1.369,1.369,0,0,1,1.879,1.991l-4.5,4.243A1.369,1.369,0,0,1,229.654,95.011Z" transform="translate(-82.635 -29.79)" fill="url(#linear-gradient)"/>
      <ellipse id="Ellipse_421" data-name="Ellipse 421" cx="2.941" cy="2.941" rx="2.941" ry="2.941" transform="translate(186.618 61.355)" fill="url(#linear-gradient-2)"/>
      <path id="Ellipse_422" data-name="Ellipse 422" d="M5.61-.5A6.11,6.11,0,1,1-.5,5.61,6.117,6.117,0,0,1,5.61-.5Zm0,11.221A5.11,5.11,0,1,0,.5,5.61,5.116,5.116,0,0,0,5.61,10.721Z" transform="translate(183.949 58.686)" fill="url(#linear-gradient-3)"/>
      <g id="Group_1515" data-name="Group 1515" transform="translate(0 -2.914)">
        <path id="Ellipse_420" data-name="Ellipse 420" d="M34.576-5A39.382,39.382,0,1,1-5,34.381,39.524,39.524,0,0,1,34.576-5Zm0,72.143A32.762,32.762,0,1,0,1.652,34.381,32.88,32.88,0,0,0,34.576,67.143Z" transform="translate(5 7.914)" fill="url(#linear-gradient-4)"/>
        <path id="Path_2459" data-name="Path 2459" d="M59.691,71.1a2.734,2.734,0,0,1-1.943-.8L37.332,49.879h0a3.45,3.45,0,0,1-.239-.306,2.661,2.661,0,0,1-.253-.472,2.828,2.828,0,0,1-.153-.512,2.488,2.488,0,0,1-.053-.545,2.827,2.827,0,0,1,.047-.532,3.327,3.327,0,0,1,.16-.519,2.661,2.661,0,0,1,.253-.466,2.574,2.574,0,0,1,.326-.452,2.8,2.8,0,0,1,1.956-.8,2.348,2.348,0,0,1,.526.053,2.542,2.542,0,0,1,.512.153,2.661,2.661,0,0,1,.472.253,2.92,2.92,0,0,1,.419.339l.1.106L59.572,64.368A26.311,26.311,0,0,0,57.729,29.4a2.754,2.754,0,0,1,.366-4.191,2.6,2.6,0,0,1,1.517-.479,3,3,0,0,1,2.115.9A31.666,31.666,0,0,1,61.614,70.3,2.734,2.734,0,0,1,59.691,71.1Zm-23.556-.353a2.734,2.734,0,0,1-1.943-.8,31.706,31.706,0,0,1,0-44.778,2.747,2.747,0,0,1,3.885,0l20.45,20.45A2.747,2.747,0,1,1,54.642,49.5l-18.4-18.408a26.291,26.291,0,0,0,1.836,34.939,2.774,2.774,0,0,1-1.943,4.717Z" transform="translate(-8.348 -5.451)" fill="url(#linear-gradient-5)"/>
      </g>
    </g>
  </g>
</svg>
