<svg xmlns="http://www.w3.org/2000/svg" xmlns:xlink="http://www.w3.org/1999/xlink" width="539.206" height="563.659" viewBox="0 0 539.206 563.659">
  <defs>
    <linearGradient id="linear-gradient" x1="0.991" y1="0.63" x2="0.01" y2="0.371" gradientUnits="objectBoundingBox">
      <stop offset="0" stop-color="#6cffd3"/>
      <stop offset="1" stop-color="#9bff00"/>
    </linearGradient>
    <filter id="Path_2469" x="0" y="0" width="539.206" height="563.659" filterUnits="userSpaceOnUse">
      <feOffset input="SourceAlpha"/>
      <feGaussianBlur stdDeviation="15" result="blur"/>
      <feFlood flood-color="#6ab04d" flood-opacity="0.302"/>
      <feComposite operator="in" in2="blur"/>
      <feComposite in="SourceGraphic"/>
    </filter>
  </defs>
  <g transform="matrix(1, 0, 0, 1, 0, 0)" filter="url(#Path_2469)">
    <path id="Path_2469-2" data-name="Path 2469" d="M289.82,407.859a22.472,22.472,0,0,1-15.966-6.616l-167.8-167.8h0a28.354,28.354,0,0,1-1.968-2.515A21.872,21.872,0,0,1,102,227.041a23.241,23.241,0,0,1-1.258-4.21,20.447,20.447,0,0,1-.437-4.484,23.233,23.233,0,0,1,.383-4.374A27.343,27.343,0,0,1,102,209.709a21.871,21.871,0,0,1,2.078-3.827,21.157,21.157,0,0,1,2.679-3.718,23.019,23.019,0,0,1,16.075-6.561,19.3,19.3,0,0,1,4.32.437,20.889,20.889,0,0,1,4.21,1.258,21.872,21.872,0,0,1,3.882,2.078,24,24,0,0,1,3.445,2.789l.82.875L288.835,352.526A216.249,216.249,0,0,0,273.69,65.142,22.636,22.636,0,0,1,276.7,30.695a21.379,21.379,0,0,1,12.466-3.937,24.66,24.66,0,0,1,17.387,7.381c100.741,101.784,100.326,265.832-.93,367.1A22.473,22.473,0,0,1,289.82,407.859Z" transform="matrix(0.82, -0.57, 0.57, 0.82, -52.51, 242.09)" fill="url(#linear-gradient)"/>
  </g>
</svg>
