<svg xmlns="http://www.w3.org/2000/svg" xmlns:xlink="http://www.w3.org/1999/xlink" width="1920" height="500" viewBox="0 0 1920 500">
  <defs>
    <clipPath id="clip-path">
      <rect id="Rectangle_1539" data-name="Rectangle 1539" width="1920" height="500" transform="translate(-20116 10197)" fill="#fff"/>
    </clipPath>
    <filter id="Path_2481" x="-148.501" y="18.5" width="2219.814" height="633.02" filterUnits="userSpaceOnUse">
      <feOffset input="SourceAlpha"/>
      <feGaussianBlur stdDeviation="49.5" result="blur"/>
      <feFlood flood-color="#1f6100" flood-opacity="0.302"/>
      <feComposite operator="in" in2="blur"/>
      <feComposite in="SourceGraphic"/>
    </filter>
  </defs>
  <g id="Mask_Group_46" data-name="Mask Group 46" transform="translate(20116 -10197)" clip-path="url(#clip-path)">
    <g transform="matrix(1, 0, 0, 1, -20116, 10197)" filter="url(#Path_2481)">
      <g id="Path_2481-2" data-name="Path 2481" transform="translate(-582.9 167)" fill="#060b17">
        <path d="M 2502.851318359375 335.0194702148438 C 2347.60498046875 335.0183715820312 2092.846435546875 334.9283752441406 1798.160766601562 334.8244934082031 C 1401.00390625 334.6841430664062 950.9805908203125 334.5253601074219 585.7695922851562 334.5245056152344 C 601.4827880859375 322.0628356933594 617.6226806640625 309.7656555175781 633.781494140625 297.9442443847656 C 650.7386474609375 285.5387878417969 668.1791381835938 273.3185424804688 685.61865234375 261.6233215332031 C 703.0948486328125 249.9035491943359 721.0474243164062 238.3906860351562 738.9776611328125 227.4042663574219 C 756.9534301757812 216.3902130126953 775.398193359375 205.6044921875 793.7993774414062 195.3466339111328 C 812.2548217773438 185.0587768554688 831.1715087890625 175.0204467773438 850.0238647460938 165.5104522705078 C 868.9391479492188 155.9685516357422 888.3076782226562 146.6975860595703 907.5912475585938 137.9549713134766 C 926.9467163085938 129.1797332763672 946.7469482421875 120.6961669921875 966.4419555664062 112.7402114868164 C 986.2177124023438 104.7516403198242 1006.429565429688 97.075927734375 1026.516235351562 89.92616271972656 C 1046.692504882812 82.74449920654297 1067.296020507812 75.89640045166016 1087.75439453125 69.57211303710938 C 1108.3115234375 63.21759414672852 1129.286499023438 57.21735382080078 1150.096923828125 51.73806762695312 C 1171.0146484375 46.23068618774414 1192.34130859375 41.09854507446289 1213.484130859375 36.48378372192383 C 1234.742431640625 31.84402084350586 1256.400268554688 27.59973526000977 1277.856079101562 23.86902046203613 C 1299.435302734375 20.11687850952148 1321.404541015625 16.78068733215332 1343.153198242188 13.95354461669922 C 1365.03369140625 11.10902118682861 1387.293823242188 8.701401710510254 1409.316040039062 6.796877861022949 C 1431.477416992188 4.880449295043945 1454.008911132812 3.42116379737854 1476.284790039062 2.459259033203125 C 1498.707153320312 1.490925550460815 1521.489868164062 0.9999731779098511 1544.000122070312 0.9999731779098511 C 1566.510986328125 0.9999731779098511 1589.293823242188 1.490925550460815 1611.71533203125 2.459259033203125 C 1633.9921875 3.421401739120483 1656.524169921875 4.881163597106934 1678.685302734375 6.797830581665039 C 1700.708618164062 8.70283031463623 1722.970092773438 11.11140155792236 1744.850830078125 13.95687770843506 C 1766.601684570312 16.78521156311035 1788.572631835938 20.12282943725586 1810.153686523438 23.87687873840332 C 1831.612426757812 27.6094970703125 1853.2734375 31.85616302490234 1874.534790039062 36.49901962280273 C 1895.682250976562 41.11663818359375 1917.013427734375 46.25259399414062 1937.935791015625 51.76425933837891 C 1958.752197265625 57.24782943725586 1979.733642578125 63.2533073425293 2000.297485351562 69.61354827880859 C 2020.763671875 75.94377899169922 2041.375732421875 82.79878234863281 2061.561279296875 89.98783111572266 C 2081.657958984375 97.14544677734375 2101.881103515625 104.830207824707 2121.66845703125 112.8283081054688 C 2141.3759765625 120.7942581176758 2161.190185546875 129.2885437011719 2180.560302734375 138.07568359375 C 2199.859130859375 146.8306884765625 2219.24462890625 156.1149749755859 2238.177978515625 165.6711578369141 C 2257.048583984375 175.1956939697266 2275.985595703125 185.2502136230469 2294.46240234375 195.5554504394531 C 2312.885498046875 205.8306884765625 2331.35400390625 216.6354522705078 2349.35498046875 227.6697387695312 C 2367.311279296875 238.6764068603516 2385.291748046875 250.2116394042969 2402.797119140625 261.9549865722656 C 2420.2666015625 273.6737976074219 2437.739013671875 285.9194946289062 2454.72998046875 298.3518676757812 C 2470.92333984375 310.200927734375 2487.099365234375 322.5269775390625 2502.851318359375 335.0194702148438 Z" stroke="none"/>
        <path d="M 1544 1.999969482421875 C 1521.504028320312 1.999969482421875 1498.735961914062 2.490692138671875 1476.328002929688 3.45831298828125 C 1454.06640625 4.41949462890625 1431.549194335938 5.878082275390625 1409.402099609375 7.793304443359375 C 1387.394287109375 9.6964111328125 1365.148315429688 12.10260009765625 1343.282104492188 14.94522094726562 C 1321.547607421875 17.77069091796875 1299.592529296875 21.1044921875 1278.02734375 24.854248046875 C 1256.585693359375 28.58258056640625 1234.94189453125 32.82403564453125 1213.697387695312 37.4609375 C 1192.567993164062 42.07260131835938 1171.255615234375 47.201416015625 1150.3515625 52.7052001953125 C 1129.5546875 58.18069458007812 1108.59326171875 64.1771240234375 1088.049682617188 70.527587890625 C 1067.604736328125 76.84759521484375 1047.014770507812 83.691162109375 1026.8515625 90.86830139160156 C 1006.778076171875 98.0133056640625 986.57958984375 105.6840209960938 966.81640625 113.6675872802734 C 947.134521484375 121.6183013916016 927.34716796875 130.0961608886719 908.004150390625 138.8656921386719 C 888.733154296875 147.6028289794922 869.37744140625 156.8675994873047 850.47412109375 166.4033050537109 C 831.63427734375 175.9071197509766 812.729736328125 185.9387817382812 794.286376953125 196.22021484375 C 775.897216796875 206.4714050292969 757.46435546875 217.2502136230469 739.50048828125 228.2571105957031 C 721.58154296875 239.2361602783203 703.640625 250.7416381835938 686.17578125 262.4540100097656 C 668.74755859375 274.1416320800781 651.318359375 286.3537902832031 634.3720703125 298.7511596679688 C 618.9951171875 310.0009765625 603.63525390625 321.6813049316406 588.644287109375 333.5245361328125 C 953.33837890625 333.5261840820312 1402.049194335938 333.6845092773438 1798.160888671875 333.8244934082031 C 2091.036865234375 333.927734375 2344.4716796875 334.0172729492188 2499.97705078125 334.0194396972656 C 2484.9482421875 322.1460571289062 2469.55078125 310.435546875 2454.1396484375 299.1590270996094 C 2437.15966796875 286.7344970703125 2419.6982421875 274.4966430664062 2402.240234375 262.7854614257812 C 2384.745849609375 251.0497436523438 2366.77685546875 239.5218811035156 2348.83251953125 228.5223541259766 C 2330.84326171875 217.4952087402344 2312.38671875 206.6973571777344 2293.97509765625 196.4287872314453 C 2275.510498046875 186.1304473876953 2256.5859375 176.0823516845703 2237.72705078125 166.5637817382812 C 2218.80615234375 157.0140228271484 2199.43359375 147.7354431152344 2180.14697265625 138.9864044189453 C 2160.78955078125 130.2049713134766 2140.98828125 121.7161712646484 2121.293701171875 113.7554473876953 C 2101.51904296875 105.7625885009766 2081.309326171875 98.08282470703125 2061.2255859375 90.92997741699219 C 2041.053466796875 83.74545288085938 2020.454711914062 76.89495849609375 2000.001831054688 70.56878662109375 C 1979.45166015625 64.21258544921875 1958.483764648438 58.21115112304688 1937.680908203125 52.73117065429688 C 1916.772094726562 47.22329711914062 1895.454956054688 42.0906982421875 1874.321411132812 37.47592163085938 C 1853.07373046875 32.83615112304688 1831.426879882812 28.59234619140625 1809.982299804688 24.86187744140625 C 1788.415161132812 21.11044311523438 1766.45849609375 17.77496337890625 1744.721801757812 14.94830322265625 C 1722.855224609375 12.10498046875 1700.608276367188 9.697845458984375 1678.598999023438 7.79425048828125 C 1656.4521484375 5.8785400390625 1633.934692382812 4.41998291015625 1611.672119140625 3.45831298828125 C 1589.265014648438 2.490692138671875 1566.49658203125 1.999969482421875 1544 1.999969482421875 M 1544 -3.0517578125e-05 C 1907.261840820312 -3.0517578125e-05 2241.2236328125 125.4492645263672 2505.717529296875 336.0195007324219 C 2144.4326171875 336.0195007324219 1223.319458007812 335.5245056152344 582.90380859375 335.5245056152344 C 846.7763671875 125.4492645263672 1180.738037109375 -3.0517578125e-05 1544 -3.0517578125e-05 Z" stroke="none" fill="#1f6100"/>
      </g>
    </g>
  </g>
</svg>
