<svg id="Component_3_2" data-name="Component 3 – 2" xmlns="http://www.w3.org/2000/svg" width="25" height="25" viewBox="0 0 25 25">
  <g id="Rectangle_128" data-name="Rectangle 128" fill="none" stroke="#313f63" stroke-width="1">
    <rect width="25" height="25" rx="12.5" stroke="none"/>
    <rect x="0.5" y="0.5" width="24" height="24" rx="12" fill="none"/>
  </g>
  <g id="Telegram_logo" transform="translate(-42.604 -59.828)">
    <path id="Path_2491" data-name="Path 2491" d="M81.229,85.13l1.1,3.039s.137.284.284.284,2.333-2.274,2.333-2.274l2.431-4.7-6.107,2.862Z" transform="translate(-29.187 -12.603)" fill="#677391"/>
    <path id="Path_2492" data-name="Path 2492" d="M97.54,138.878l-.211,2.24s-.088.686.6,0S99.27,139.9,99.27,139.9" transform="translate(-44.042 -65.572)" fill="#4c597b"/>
    <path id="Path_2493" data-name="Path 2493" d="M52.062,72.635,49.8,71.9s-.27-.11-.183-.358c.018-.051.054-.095.162-.17.5-.349,9.262-3.5,9.262-3.5a.746.746,0,0,1,.393-.028.213.213,0,0,1,.145.158.722.722,0,0,1,.02.2c0,.058-.008.112-.013.2-.053.861-1.65,7.287-1.65,7.287s-.1.376-.438.389a.627.627,0,0,1-.457-.177c-.672-.578-2.994-2.138-3.507-2.481a.1.1,0,0,1-.042-.069c-.007-.036.032-.081.032-.081a55.411,55.411,0,0,0,4.15-3.971c.008-.029-.023-.044-.065-.031-.269.1-4.923,3.038-5.437,3.363A.248.248,0,0,1,52.062,72.635Z" fill="#313f63"/>
  </g>
</svg>
