<svg id="Component_3_1" data-name="Component 3 – 1" xmlns="http://www.w3.org/2000/svg" width="25" height="25" viewBox="0 0 25 25">
  <g id="Rectangle_128" data-name="Rectangle 128" fill="none" stroke="#313f63" stroke-width="1">
    <rect width="25" height="25" rx="12.5" stroke="none"/>
    <rect x="0.5" y="0.5" width="24" height="24" rx="12" fill="none"/>
  </g>
  <g id="twitter" transform="translate(8 8)">
    <g id="Group_160" data-name="Group 160" transform="translate(0)">
      <path id="Path_266" data-name="Path 266" d="M10,48.962a4.274,4.274,0,0,1-1.181.324,2.039,2.039,0,0,0,.9-1.133,4.1,4.1,0,0,1-1.3.5,2.05,2.05,0,0,0-3.546,1.4,2.111,2.111,0,0,0,.048.467A5.8,5.8,0,0,1,.7,48.374a2.051,2.051,0,0,0,.63,2.74A2.025,2.025,0,0,1,.4,50.861v.023A2.06,2.06,0,0,0,2.042,52.9a2.046,2.046,0,0,1-.538.068,1.813,1.813,0,0,1-.388-.035,2.07,2.07,0,0,0,1.916,1.428,4.119,4.119,0,0,1-2.542.874A3.84,3.84,0,0,1,0,55.205a5.772,5.772,0,0,0,3.145.92A5.8,5.8,0,0,0,8.98,50.291c0-.091,0-.178-.007-.265A4.09,4.09,0,0,0,10,48.962Z" transform="translate(0 -48)" fill="#313f63"/>
    </g>
  </g>
</svg>
